<svg width="100" height="20" viewBox="0 0 100 20" fill="none" xmlns="http://www.w3.org/2000/svg">
<rect width="100" height="20" fill="#C4C4C4"/>
<rect width="100" height="20" fill="#F0B429"/>
<path fill-rule="evenodd" clip-rule="evenodd" d="M11.1111 0H0V20H100V0H88.8889H69.4444H50H30.5556H11.1111ZM79.1667 7.46241L84.8525 11.1803L82.3579 18.0902L88.8889 13.8197L95.4198 18.0902L92.9252 11.1803L99.4562 6.90983H91.3835L88.8889 0L86.3943 6.90983H80.0117H78.3216H71.939L69.4444 0L66.9498 6.90983H60.5673H58.8771H52.4946L50 0L47.5054 6.90983H41.1228H39.4327H33.0502L30.5556 0L28.061 6.90983H21.6784H19.9883H13.6057L11.1111 0L8.61651 6.90983H0.543817L7.07476 11.1803L4.58016 18.0902L11.1111 13.8197L17.6421 18.0902L15.1475 11.1803L20.8333 7.46241L26.5192 11.1803L24.0246 18.0902L30.5556 13.8197L37.0865 18.0902L34.5919 11.1803L40.2778 7.46241L45.9637 11.1803L43.4691 18.0902L50 13.8197L56.5309 18.0902L54.0363 11.1803L59.7222 7.46241L65.4081 11.1803L62.9135 18.0902L69.4444 13.8197L75.9754 18.0902L73.4808 11.1803L79.1667 7.46241Z" fill="white"/>
</svg>
