<svg xmlns="http://www.w3.org/2000/svg" xmlns:xlink="http://www.w3.org/1999/xlink" width="128" height="29" viewBox="0 0 128 29">
  <defs>
    <polygon id="nobelic-logo-gray-a" points=".051 .034 127.775 .034 127.775 28.632 .051 28.632"/>
  </defs>
  <g fill="none" fill-rule="evenodd">
    <mask id="nobelic-logo-gray-b" fill="#fff">
      <use xlink:href="#nobelic-logo-gray-a"/>
    </mask>
    <path fill="#5B6670" d="M9.69431579 7.85684211C12.3646316 7.85684211 14.6458947 8.86652632 16.5338947 10.8858947 18.4370526 12.9187368 19.3877895 15.3675789 19.3877895 18.2341053L19.3877895 26.6383158C19.3877895 27.1848421 19.1924211 27.6547368 18.8025263 28.0454737 18.4235789 28.4362105 17.9621053 28.6315789 17.4147368 28.6315789 16.8665263 28.6315789 16.3983158 28.4362105 16.0067368 28.0454737 15.616 27.6547368 15.4206316 27.1848421 15.4206316 26.6383158L15.4206316 18.2341053C15.4206316 16.4623158 14.8606316 14.9515789 13.7397895 13.7002105 12.6189474 12.4370526 11.2707368 11.8046316 9.69431579 11.8046316 8.11705263 11.8046316 6.76884211 12.4294737 5.64968421 13.6808421 4.51536842 14.9448421 3.94863158 16.4623158 3.94863158 18.2341053L3.94863158 26.6383158C3.94863158 27.1848421 3.76 27.6547368 3.38105263 28.0454737 2.99115789 28.4362105 2.52126316 28.6315789 1.97473684 28.6315789 1.42736842 28.6315789.964210526 28.4362105.586947368 28.0454737.196210526 27.6547368 0 27.1848421 0 26.6383158L0 9.83073684C0 9.28336842.196210526 8.81431579.586947368 8.42357895.964210526 8.04547368 1.42736842 7.85684211 1.97473684 7.85684211 2.52126316 7.85684211 2.99115789 8.04547368 3.38105263 8.42357895 3.76 8.81431579 3.94863158 9.28336842 3.94863158 9.83073684L3.94863158 9.86947368C5.65557895 8.528 7.57052632 7.85684211 9.69431579 7.85684211M32.9128421 24.6635789C34.6854737 24.6635789 36.1962105 24.0387368 37.4458947 22.7882105 38.7098947 21.5250526 39.3414737 20.0067368 39.3414737 18.2341053 39.3414737 16.4623158 38.7098947 14.9515789 37.4458947 13.7002105 36.1962105 12.4370526 34.6854737 11.8046316 32.9128421 11.8046316 31.1275789 11.8046316 29.6092632 12.4370526 28.3587368 13.7002105 27.0947368 14.9515789 26.4631579 16.4623158 26.4631579 18.2341053 26.4631579 20.0067368 27.0947368 21.5250526 28.3587368 22.7882105 29.6092632 24.0387368 31.1275789 24.6635789 32.9128421 24.6635789zM32.9128421 7.85684211C35.7667368 7.85684211 38.2096842 8.86652632 40.2416842 10.8858947 42.2745263 12.9187368 43.2909474 15.3675789 43.2909474 18.2341053 43.2909474 21.1006316 42.2745263 23.5503158 40.2416842 25.5831579 38.2096842 27.6151579 35.7667368 28.6315789 32.9128421 28.6315789 30.0454737 28.6315789 27.5974737 27.6151579 25.5646316 25.5831579 23.5317895 23.5503158 22.5153684 21.1006316 22.5153684 18.2341053 22.5153684 15.3675789 23.5317895 12.9187368 25.5646316 10.8858947 27.5974737 8.86652632 30.0454737 7.85684211 32.9128421 7.85684211zM56.8126316 7.85684211C59.6673684 7.85684211 62.1094737 8.86652632 64.1423158 10.8858947 66.1743158 12.9187368 67.1915789 15.3675789 67.1915789 18.2341053 67.1915789 21.1006316 66.1743158 23.5503158 64.1423158 25.5831579 62.1094737 27.6151579 59.6673684 28.6315789 56.8126316 28.6315789 53.9469474 28.6315789 51.4972632 27.6151579 49.4644211 25.5831579 47.4324211 23.5503158 46.416 21.1006316 46.416 18.2341053L46.416 1.97473684C46.416 1.42652632 46.6130526.965052632 47.0029474.586105263 47.3802105.196210526 47.8433684 0 48.3898947 0 48.9372632 0 49.4063158.196210526 49.7970526.586105263 50.176.965052632 50.3654737 1.42652632 50.3654737 1.97473684L50.3654737 18.2341053C50.3654737 20.0067368 50.9970526 21.5250526 52.2610526 22.7882105 53.5107368 24.0387368 55.0282105 24.6635789 56.8126316 24.6635789 58.5852632 24.6635789 60.0976842 24.0387368 61.3482105 22.7882105 62.6113684 21.5250526 63.2437895 20.0067368 63.2437895 18.2341053 63.2437895 16.4623158 62.6113684 14.9515789 61.3482105 13.7002105 60.0976842 12.4370526 58.5852632 11.8046316 56.8126316 11.8046316 55.9006316 11.8046316 55.0282105 11.9873684 54.1945263 12.352 53.7002105 12.5734737 53.1974737 12.5861053 52.6896842 12.3915789 52.1810526 12.1953684 51.8164211 11.8433684 51.5957895 11.3355789 51.3734737 10.8404211 51.36 10.3393684 51.5570526 9.83073684 51.7524211 9.32294737 52.1044211 8.95747368 52.6122105 8.73684211 53.9418947 8.14989474 55.3406316 7.85684211 56.8126316 7.85684211M89.2353684 14.5212632L89.2353684 14.5406316C89.4442105 15.0366316 89.4383158 15.5376842 89.216 16.0454737 89.008 16.5532632 88.6501053 16.9061053 88.1414737 17.1006316L77.0804211 21.5376842C76.8463158 21.6286316 76.6046316 21.6741053 76.3570526 21.6741053 75.4585263 21.6741053 74.8463158 21.2572632 74.5195789 20.4235789 74.3115789 19.9275789 74.3183158 19.4265263 74.5389474 18.9187368 74.7477895 18.4101053 75.1065263 18.0589474 75.6151579 17.8635789L84.5844211 14.2669474C83.2825263 12.6248421 81.6016842 11.8046316 79.5435789 11.8046316 77.7583158 11.8046316 76.24 12.4370526 74.9894737 13.7002105 73.7254737 14.9515789 73.0938947 16.4623158 73.0938947 18.2341053 73.0938947 20.0067368 73.7254737 21.5250526 74.9894737 22.7882105 76.24 24.0387368 77.7583158 24.6635789 79.5435789 24.6635789 81.6269474 24.6635789 83.3153684 23.8366316 84.6037895 22.1818947 84.944 21.7515789 85.3861053 21.5048421 85.9334737 21.44 86.4682105 21.3743158 86.9498947 21.5115789 87.3802105 21.8501053 87.8096842 22.176 88.0648421 22.6122105 88.1414737 23.1595789 88.208 23.7069474 88.0698947 24.1953684 87.7322105 24.6248421 85.6471579 27.296 82.9170526 28.6315789 79.5435789 28.6315789 76.6762105 28.6315789 74.2282105 27.6151579 72.1953684 25.5831579 70.1625263 23.5503158 69.1461053 21.1006316 69.1461053 18.2341053 69.1461053 15.3675789 70.1625263 12.9187368 72.1953684 10.8858947 74.2282105 8.86652632 76.6762105 7.85684211 79.5435789 7.85684211 81.6665263 7.85684211 83.6202105 8.46315789 85.4054737 9.67410526 87.1915789 10.8993684 88.4682105 12.5077895 89.2353684 14.5010526 89.2353684 14.5145263 89.2353684 14.5212632 89.2353684 14.5212632M95.04 0C95.5890526 0 96.0564211.196210526 96.4488421.586105263 96.8252632.965052632 97.0147368 1.42652632 97.0147368 1.97473684L97.0147368 26.6383158C97.0147368 27.1848421 96.8252632 27.6547368 96.4488421 28.0454737 96.0564211 28.4362105 95.5890526 28.6315789 95.04 28.6315789 94.4934737 28.6315789 94.0311579 28.4362105 93.6530526 28.0454737 93.2623158 27.6547368 93.0669474 27.1848421 93.0669474 26.6383158L93.0669474 1.97473684C93.0669474 1.42652632 93.2623158.965052632 93.6530526.586105263 94.0311579.196210526 94.4934737 0 95.04 0M104.069895 7.85684211C104.618105 7.85684211 105.086316 8.04547368 105.477895 8.42357895 105.855158 8.81431579 106.043789 9.28336842 106.043789 9.83073684L106.043789 26.6383158C106.043789 27.1848421 105.855158 27.6547368 105.477895 28.0454737 105.086316 28.4362105 104.618105 28.6315789 104.069895 28.6315789 103.522526 28.6315789 103.060211 28.4362105 102.682105 28.0454737 102.291368 27.6547368 102.096 27.1848421 102.096 26.6383158L102.096 9.83073684C102.096 9.28336842 102.291368 8.81431579 102.682105 8.42357895 103.060211 8.04547368 103.522526 7.85684211 104.069895 7.85684211zM101.901474 1.97473684C101.901474 1.42652632 102.096.958315789 102.486737.567578947 102.877474.189473684 103.346526 0 103.893895 0L104.186947 0C104.734316 0 105.203368.189473684 105.594105.567578947 105.985684.958315789 106.181053 1.42652632 106.181053 1.97473684 106.181053 2.52126316 105.985684 2.98442105 105.594105 3.36168421 105.203368 3.75242105 104.734316 3.94863158 104.186947 3.94863158L103.893895 3.94863158C103.346526 3.94863158 102.877474 3.75242105 102.486737 3.36168421 102.096 2.98442105 101.901474 2.52126316 101.901474 1.97473684zM124.414316 22.8075789C124.792421 22.4303158 125.254737 22.2408421 125.801263 22.2408421 126.347789 22.2543158 126.817684 22.4564211 127.210105 22.8463158 127.586526 23.2252632 127.775158 23.6875789 127.775158 24.2341053 127.775158 24.7814737 127.580632 25.2505263 127.188211 25.6412632 125.169684 27.6345263 122.740211 28.6315789 119.899789 28.6315789 117.033263 28.6315789 114.584421 27.6151579 112.551579 25.5831579 110.518737 23.5503158 109.503158 21.1006316 109.503158 18.2341053 109.503158 15.3675789 110.518737 12.9187368 112.551579 10.8858947 114.584421 8.86652632 117.033263 7.85684211 119.899789 7.85684211 122.726737 7.85684211 125.150316 8.848 127.169684 10.8269474 127.561263 11.2058947 127.756632 11.6673684 127.756632 12.2147368 127.768421 12.7621053 127.580632 13.2311579 127.188211 13.6218947 126.811789 14.0134737 126.347789 14.2088421 125.801263 14.2088421 125.254737 14.2214737 124.784842 14.0328421 124.394947 13.6412632 123.144421 12.4168421 121.645474 11.8046316 119.899789 11.8046316 118.114526 11.8046316 116.596211 12.4370526 115.345684 13.7002105 114.082526 14.9515789 113.450105 16.4623158 113.450105 18.2341053 113.450105 20.0067368 114.082526 21.5250526 115.345684 22.7882105 116.596211 24.0387368 118.114526 24.6635789 119.899789 24.6635789 121.658105 24.6635789 123.163789 24.0454737 124.414316 22.8075789" mask="url(#nobelic-logo-gray-b)"/>
  </g>
</svg>
