<svg width="331" height="104" viewBox="0 0 331 104" fill="none" xmlns="http://www.w3.org/2000/svg"><path fill="#D80000" d="M1 31h247.816v41H1z"/><path fill="url(#paint0_linear)" d="M1 31h247.816v41H1z"/><path d="M249.322 31l15.172-9H18.701L3.023 31h246.299z" fill="url(#paint1_linear)"/><path d="M249.322 72H3.023l15.678 9H265l-15.678-9z" fill="url(#paint2_linear)"/><path d="M71.805 53.94c-.158 1.353-.66 2.399-1.503 3.137-.838.733-1.954 1.099-3.349 1.099-1.511 0-2.724-.542-3.638-1.626-.908-1.084-1.362-2.534-1.362-4.35v-1.231c0-1.19.21-2.236.632-3.138.428-.902 1.032-1.594 1.81-2.074.78-.486 1.683-.73 2.708-.73 1.36 0 2.45.381 3.27 1.143.82.756 1.297 1.805 1.432 3.146h-1.696c-.147-1.02-.466-1.757-.958-2.214-.487-.457-1.17-.686-2.048-.686-1.078 0-1.925.399-2.54 1.195-.61.797-.914 1.931-.914 3.402v1.239c0 1.389.29 2.493.87 3.313.58.82 1.391 1.23 2.434 1.23.938 0 1.656-.21 2.154-.632.504-.428.838-1.169 1.002-2.223h1.696zm10.38-8.737h1.687V58h-1.687v-9.861L75.883 58h-1.696V45.203h1.696v9.861l6.302-9.86zm14.177 8.736c-.158 1.354-.66 2.4-1.503 3.138-.838.733-1.954 1.099-3.349 1.099-1.512 0-2.725-.542-3.639-1.626-.908-1.084-1.362-2.534-1.362-4.35v-1.231c0-1.19.211-2.236.633-3.138.428-.902 1.031-1.594 1.81-2.074.78-.486 1.682-.73 2.707-.73 1.36 0 2.45.381 3.27 1.143.82.756 1.298 1.805 1.433 3.146h-1.697c-.146-1.02-.465-1.757-.958-2.214-.486-.457-1.169-.686-2.047-.686-1.079 0-1.925.399-2.54 1.195-.61.797-.915 1.931-.915 3.402v1.239c0 1.389.29 2.493.87 3.313.58.82 1.392 1.23 2.435 1.23.938 0 1.655-.21 2.153-.632.504-.428.838-1.169 1.002-2.223h1.697zm10.889-7.347h-4.113V58h-1.679V46.592h-4.104v-1.389h9.896v1.389zm9.132 5.493h-5.546v4.535h6.443V58h-8.13V45.203h8.042v1.389h-6.355v4.113h5.546v1.38zm5.177-6.882l4.184 10.441 4.183-10.44h2.189V58h-1.688v-4.983l.158-5.38L126.385 58h-1.292l-4.192-10.336.167 5.353V58h-1.688V45.203h2.18zm15.302 5.22h3.181c1.336.018 2.379.361 3.129 1.03.75.667 1.125 1.575 1.125 2.724 0 1.154-.378 2.074-1.134 2.76-.755.685-1.787 1.04-3.093 1.063h-4.896V45.203h1.688v5.22zm0 1.39v4.807h3.085c.838 0 1.488-.222 1.951-.668.469-.445.703-1.043.703-1.793 0-.72-.226-1.289-.677-1.705-.445-.416-1.081-.63-1.907-.642h-3.155zM147.532 58h-1.688V45.203h1.688V58zm19.116 3.138h-1.679V58h-9.184v3.147h-1.688l-.009-4.527h1.046c.551-.621.987-1.453 1.31-2.496.328-1.049.533-2.197.615-3.445l.281-5.476h7.655V56.62h1.67l-.017 4.518zm-9.589-4.518h6.24V46.592h-4.333l-.184 3.761c-.077 1.471-.273 2.725-.589 3.762-.311 1.037-.689 1.872-1.134 2.505zm21.243-4.605c0 1.254-.211 2.35-.633 3.287-.422.931-1.019 1.643-1.793 2.136-.773.492-1.675.738-2.707.738-1.008 0-1.901-.246-2.68-.739-.78-.497-1.386-1.204-1.82-2.118-.427-.92-.647-1.983-.659-3.19v-.923c0-1.23.214-2.317.642-3.26.427-.944 1.031-1.665 1.81-2.163.785-.504 1.682-.756 2.69-.756 1.025 0 1.927.25 2.707.747.785.493 1.388 1.21 1.81 2.154.422.937.633 2.03.633 3.278v.809zm-1.679-.827c0-1.517-.304-2.68-.914-3.489-.609-.814-1.462-1.221-2.557-1.221-1.067 0-1.908.407-2.523 1.221-.609.809-.923 1.934-.94 3.375v.94c0 1.471.307 2.629.923 3.472.621.838 1.473 1.257 2.557 1.257 1.09 0 1.934-.395 2.532-1.186.597-.797.905-1.937.922-3.42v-.949zm13.623 2.752c-.158 1.353-.659 2.399-1.502 3.137-.838.733-1.955 1.099-3.349 1.099-1.512 0-2.725-.542-3.639-1.626-.908-1.084-1.362-2.534-1.362-4.35v-1.231c0-1.19.211-2.236.633-3.138.427-.902 1.031-1.594 1.81-2.074.78-.486 1.682-.73 2.707-.73 1.36 0 2.45.381 3.27 1.143.82.756 1.298 1.805 1.432 3.146h-1.696c-.146-1.02-.466-1.757-.958-2.214-.486-.457-1.169-.686-2.048-.686-1.078 0-1.925.399-2.54 1.195-.609.797-.914 1.931-.914 3.402v1.239c0 1.389.29 2.493.87 3.313.58.82 1.392 1.23 2.435 1.23.937 0 1.655-.21 2.153-.632.504-.428.838-1.169 1.002-2.223h1.696zm10.89-7.348h-4.113V58h-1.679V46.592h-4.104v-1.389h9.896v1.389zm6.293 6.038l2.944-7.427h1.96l-4.526 10.661c-.305.68-.589 1.163-.853 1.45a2.725 2.725 0 01-.931.65c-.352.147-.794.22-1.327.22-.463 0-.759-.026-.888-.078l.053-1.337.8.036c.615 0 1.072-.296 1.371-.888l.219-.457.334-.782-4.359-9.475h1.89l3.313 7.427zM224.128 58h-1.696V46.592h-6.311V58h-1.687V45.203h9.694V58zm10.143-3.34h-5.361L227.705 58h-1.74l4.887-12.797h1.476L237.224 58h-1.731l-1.222-3.34zm-4.852-1.388h4.351l-2.18-5.986-2.171 5.986z" fill="#FAF9F7"/><path d="M19.207 21L1 31.5v40L19.207 82" stroke="#423D33" stroke-width="2"/><g filter="url(#filter0_d)"><path d="M285 10l36 20.757V72.27l-36 20.757-36-20.757V30.757L285 10z" fill="url(#paint3_radial)"/><path d="M250 31.334l35-20.18 35 20.18v40.358l-35 20.18-35-20.18V31.335z" stroke="#423D33" stroke-width="2"/></g><g filter="url(#filter1_d)"><path fill-rule="evenodd" clip-rule="evenodd" d="M272.095 68.86V51.625L313.6 38.937 312.396 35l-40.301 12.321v-2.117H256V68.86h16.095zm-8.413-13.413a2.805 2.805 0 100-5.61 2.805 2.805 0 000 5.61zm15.241-9.755l1.951-.61-1.097 3.902-2.073.61 1.219-3.902zm12.682-3.902l-1.951.61-1.22 3.902 2.073-.61 1.098-3.902zm7.315-2.317l1.951-.61-1.097 3.903-2.073.61 1.219-3.903zm11.462-3.536l-1.951.61-1.219 3.902 2.073-.61 1.097-3.902z" fill="#D80000"/></g><defs><linearGradient id="paint0_linear" x1="124.908" y1="31" x2="124.908" y2="72" gradientUnits="userSpaceOnUse"><stop stop-color="#D80000"/><stop offset=".489" stop-color="#DC9090" stop-opacity=".511"/><stop offset="1" stop-color="#D80000"/></linearGradient><linearGradient id="paint1_linear" x1="133.759" y1="22" x2="133.759" y2="31" gradientUnits="userSpaceOnUse"><stop stop-color="#fff" stop-opacity="0"/><stop offset="1" stop-color="#D3CEC4"/></linearGradient><linearGradient id="paint2_linear" x1="134.011" y1="72" x2="134.011" y2="81" gradientUnits="userSpaceOnUse"><stop stop-color="#D3CEC4"/><stop offset="1" stop-color="#fff" stop-opacity="0"/></linearGradient><filter id="filter0_d" x="239" y="0" width="92" height="103.027" filterUnits="userSpaceOnUse" color-interpolation-filters="sRGB"><feFlood flood-opacity="0" result="BackgroundImageFix"/><feColorMatrix in="SourceAlpha" values="0 0 0 0 0 0 0 0 0 0 0 0 0 0 0 0 0 0 127 0"/><feOffset/><feGaussianBlur stdDeviation="5"/><feColorMatrix values="0 0 0 0 0 0 0 0 0 0 0 0 0 0 0 0 0 0 0.25 0"/><feBlend in2="BackgroundImageFix" result="effect1_dropShadow"/><feBlend in="SourceGraphic" in2="effect1_dropShadow" result="shape"/></filter><filter id="filter1_d" x="252" y="35" width="65.6" height="41.859" filterUnits="userSpaceOnUse" color-interpolation-filters="sRGB"><feFlood flood-opacity="0" result="BackgroundImageFix"/><feColorMatrix in="SourceAlpha" values="0 0 0 0 0 0 0 0 0 0 0 0 0 0 0 0 0 0 127 0"/><feOffset dy="4"/><feGaussianBlur stdDeviation="2"/><feColorMatrix values="0 0 0 0 0 0 0 0 0 0 0 0 0 0 0 0 0 0 0.25 0"/><feBlend in2="BackgroundImageFix" result="effect1_dropShadow"/><feBlend in="SourceGraphic" in2="effect1_dropShadow" result="shape"/></filter><radialGradient id="paint3_radial" cx="0" cy="0" r="1" gradientUnits="userSpaceOnUse" gradientTransform="matrix(0 41.4865 -35.9766 0 285 51.514)"><stop stop-color="#fff" stop-opacity="0"/><stop offset="1" stop-color="#E8E6E1"/></radialGradient></defs></svg>