<svg width="208" height="239" viewBox="0 0 208 239" fill="none" xmlns="http://www.w3.org/2000/svg"><g filter="url(#filter0_dd)"><path d="M6 58.813L104 2.31l98 56.504v113.005l-98 56.504-98-56.504V58.813z" stroke="#504A40" stroke-width="4"/><path fill="#504A40" d="M31.027 104.054h18.018v61.712H31.027zm142.342 0h12v61.712h-12z"/><rect x="17.514" y="130.631" width="175.676" height="10" rx="4" transform="rotate(-25 17.514 130.631)" fill="#504A40"/><path fill="#F0B429" d="M53.55 114.414l14.289-6.663 3.38 7.25-14.288 6.663zm26.126-12.256l14.289-6.663 3.38 7.25-14.288 6.663zm26.126-12.256l14.289-6.663 3.38 7.25-14.288 6.663zm26.126-12.256l14.289-6.663 3.38 7.25-14.288 6.663zm26.126-12.256l14.289-6.663 3.38 7.25-14.288 6.663zM32 115h15.766v8H32zm143 7.766V107h8v15.766z"/></g><defs><filter id="filter0_dd" x="0" y="0" width="208" height="238.631" filterUnits="userSpaceOnUse" color-interpolation-filters="sRGB"><feFlood flood-opacity="0" result="BackgroundImageFix"/><feColorMatrix in="SourceAlpha" values="0 0 0 0 0 0 0 0 0 0 0 0 0 0 0 0 0 0 127 0"/><feOffset dy="4"/><feGaussianBlur stdDeviation="2"/><feColorMatrix values="0 0 0 0 0 0 0 0 0 0 0 0 0 0 0 0 0 0 0.25 0"/><feBlend in2="BackgroundImageFix" result="effect1_dropShadow"/><feColorMatrix in="SourceAlpha" values="0 0 0 0 0 0 0 0 0 0 0 0 0 0 0 0 0 0 127 0"/><feOffset dy="4"/><feGaussianBlur stdDeviation="2"/><feColorMatrix values="0 0 0 0 0 0 0 0 0 0 0 0 0 0 0 0 0 0 0.25 0"/><feBlend in2="effect1_dropShadow" result="effect2_dropShadow"/><feBlend in="SourceGraphic" in2="effect2_dropShadow" result="shape"/></filter></defs></svg>