<svg width="331" height="104" viewBox="0 0 331 104" fill="none" xmlns="http://www.w3.org/2000/svg"><path fill="#D80000" d="M1 31h247.816v41H1z"/><path fill="url(#paint0_linear)" d="M1 31h247.816v41H1z"/><path d="M249.322 31l15.172-9H18.701L3.023 31h246.299z" fill="url(#paint1_linear)"/><path d="M249.322 72H3.023l15.678 9H265l-15.678-9z" fill="url(#paint2_linear)"/><path d="M97.988 52.63l2.944-7.427h1.96l-4.526 10.661c-.305.68-.59 1.163-.853 1.45a2.73 2.73 0 01-.932.65c-.351.147-.794.22-1.327.22-.463 0-.758-.026-.887-.078l.052-1.337.8.036c.615 0 1.072-.296 1.371-.888l.22-.457.334-.782-4.36-9.475h1.89l3.314 7.427zm9.105-7.427l4.184 10.441 4.183-10.44h2.189V58h-1.688v-4.983l.158-5.38L111.918 58h-1.292l-4.192-10.336.167 5.353V58h-1.688V45.203h2.18zM130.463 58h-1.696v-5.915h-6.451V58h-1.688V45.203h1.688v5.502h6.451v-5.502h1.696V58zm4.764-7.576h3.182c1.335.017 2.378.36 3.128 1.028s1.125 1.576 1.125 2.725c0 1.154-.377 2.074-1.133 2.76-.756.685-1.787 1.04-3.094 1.063h-4.896V45.203h1.688v5.22zm0 1.389v4.807h3.085c.838 0 1.488-.222 1.951-.668.469-.445.703-1.043.703-1.793 0-.72-.225-1.289-.677-1.705-.445-.416-1.081-.63-1.907-.642h-3.155zM145.897 58h-1.688V45.203h1.688V58zm11.206-12.797h1.687V58h-1.687v-9.861L150.801 58h-1.696V45.203h1.696v9.861l6.302-9.86zm-.475-3.181c0 .709-.243 1.28-.729 1.713-.481.428-1.113.642-1.899.642-.785 0-1.421-.217-1.907-.65-.486-.434-.729-1.002-.729-1.705h1.327c0 .41.111.732.334.966.222.229.548.343.975.343.411 0 .73-.114.958-.343.235-.228.352-.55.352-.966h1.318zm21.217 19.116h-1.679V58h-9.184v3.147h-1.688l-.008-4.527h1.045c.551-.621.988-1.453 1.31-2.496.328-1.049.533-2.197.615-3.445l.281-5.476h7.656V56.62h1.67l-.018 4.518zm-9.589-4.518h6.24V46.592h-4.333l-.184 3.761c-.076 1.471-.273 2.725-.589 3.762-.311 1.037-.688 1.872-1.134 2.505zm21.243-4.605c0 1.254-.211 2.35-.632 3.287-.422.931-1.02 1.643-1.793 2.136-.774.492-1.676.738-2.707.738-1.008 0-1.902-.246-2.681-.739-.779-.497-1.386-1.204-1.819-2.118-.428-.92-.648-1.983-.66-3.19v-.923c0-1.23.214-2.317.642-3.26.428-.944 1.031-1.665 1.811-2.163.785-.504 1.681-.756 2.689-.756 1.025 0 1.928.25 2.707.747.785.493 1.389 1.21 1.811 2.154.421.937.632 2.03.632 3.278v.809zm-1.678-.827c0-1.517-.305-2.68-.914-3.489-.61-.814-1.462-1.221-2.558-1.221-1.066 0-1.907.407-2.522 1.221-.61.809-.923 1.934-.941 3.375v.94c0 1.471.308 2.629.923 3.472.621.838 1.474 1.257 2.558 1.257 1.089 0 1.933-.395 2.531-1.186.597-.797.905-1.937.923-3.42v-.949zm6.389-5.985l4.184 10.441 4.183-10.44h2.189V58h-1.688v-4.983l.159-5.38L199.036 58h-1.292l-4.193-10.336.167 5.353V58h-1.687V45.203h2.179z" fill="#FAF9F7"/><path d="M19.207 21L1 31.5v40L19.207 82" stroke="#423D33" stroke-width="2"/><g filter="url(#filter0_d)"><path d="M285 10l36 20.757V72.27l-36 20.757-36-20.757V30.757L285 10z" fill="url(#paint3_radial)"/><path d="M250 31.334l35-20.18 35 20.18v40.358l-35 20.18-35-20.18V31.335z" stroke="#423D33" stroke-width="2"/></g><g filter="url(#filter1_d)"><path fill-rule="evenodd" clip-rule="evenodd" d="M258.487 34.665a3.666 3.666 0 017.331 0v5.499c0 .064-.001.127-.005.19L313.6 51.292v10.604L265.651 41.26a3.43 3.43 0 01-.133.359l47.689 27.475-9.556 5.499-38.525-32.285c-.041.056-.082.11-.125.164l33.152 35.393-8.902 5.368-25.017-40.051a3.729 3.729 0 01-.359.218l18.83 41.404-11.389-7.07-8.384-33.988a3.64 3.64 0 01-.357.059l3.374 31.18-9.949-5.89 5.344-25.355a3.667 3.667 0 01-2.857-3.576v-5.499zm3.666 6.808a1.309 1.309 0 100-2.618 1.309 1.309 0 000 2.618z" fill="#D80000"/></g><defs><linearGradient id="paint0_linear" x1="124.908" y1="31" x2="124.908" y2="72" gradientUnits="userSpaceOnUse"><stop stop-color="#D80000"/><stop offset=".489" stop-color="#DC9090" stop-opacity=".511"/><stop offset="1" stop-color="#D80000"/></linearGradient><linearGradient id="paint1_linear" x1="133.759" y1="22" x2="133.759" y2="31" gradientUnits="userSpaceOnUse"><stop stop-color="#fff" stop-opacity="0"/><stop offset="1" stop-color="#D3CEC4"/></linearGradient><linearGradient id="paint2_linear" x1="134.011" y1="72" x2="134.011" y2="81" gradientUnits="userSpaceOnUse"><stop stop-color="#D3CEC4"/><stop offset="1" stop-color="#fff" stop-opacity="0"/></linearGradient><filter id="filter0_d" x="239" y="0" width="92" height="103.027" filterUnits="userSpaceOnUse" color-interpolation-filters="sRGB"><feFlood flood-opacity="0" result="BackgroundImageFix"/><feColorMatrix in="SourceAlpha" values="0 0 0 0 0 0 0 0 0 0 0 0 0 0 0 0 0 0 127 0"/><feOffset/><feGaussianBlur stdDeviation="5"/><feColorMatrix values="0 0 0 0 0 0 0 0 0 0 0 0 0 0 0 0 0 0 0.25 0"/><feBlend in2="BackgroundImageFix" result="effect1_dropShadow"/><feBlend in="SourceGraphic" in2="effect1_dropShadow" result="shape"/></filter><filter id="filter1_d" x="252" y="31" width="65.6" height="61.804" filterUnits="userSpaceOnUse" color-interpolation-filters="sRGB"><feFlood flood-opacity="0" result="BackgroundImageFix"/><feColorMatrix in="SourceAlpha" values="0 0 0 0 0 0 0 0 0 0 0 0 0 0 0 0 0 0 127 0"/><feOffset dy="4"/><feGaussianBlur stdDeviation="2"/><feColorMatrix values="0 0 0 0 0 0 0 0 0 0 0 0 0 0 0 0 0 0 0.25 0"/><feBlend in2="BackgroundImageFix" result="effect1_dropShadow"/><feBlend in="SourceGraphic" in2="effect1_dropShadow" result="shape"/></filter><radialGradient id="paint3_radial" cx="0" cy="0" r="1" gradientUnits="userSpaceOnUse" gradientTransform="matrix(0 41.4865 -35.9766 0 285 51.514)"><stop stop-color="#fff" stop-opacity="0"/><stop offset="1" stop-color="#E8E6E1"/></radialGradient></defs></svg>