<svg width="331" height="104" viewBox="0 0 331 104" fill="none" xmlns="http://www.w3.org/2000/svg"><path fill="#D80000" d="M1 31h247.816v41H1z"/><path fill="url(#paint0_linear)" d="M1 31h247.816v41H1z"/><path d="M249.322 31l15.172-9H18.701L3.023 31h246.299z" fill="url(#paint1_linear)"/><path d="M249.322 72H3.023l15.678 9H265l-15.678-9z" fill="url(#paint2_linear)"/><path d="M78.283 52.252h-1.556V58h-1.688V45.203h1.688v5.643h1.318l4.474-5.643h2.1l-4.886 6.205L84.98 58h-2.066l-4.631-5.748zm17.806-.237c0 1.254-.21 2.35-.633 3.287-.422.931-1.02 1.643-1.793 2.136-.773.492-1.675.738-2.707.738-1.007 0-1.901-.246-2.68-.739-.78-.497-1.386-1.204-1.82-2.118-.427-.92-.647-1.983-.659-3.19v-.923c0-1.23.214-2.317.642-3.26.428-.944 1.031-1.665 1.81-2.163.785-.504 1.682-.756 2.69-.756 1.025 0 1.928.25 2.707.747.785.493 1.388 1.21 1.81 2.154.422.937.633 2.03.633 3.278v.809zm-1.678-.827c0-1.517-.305-2.68-.915-3.489-.609-.814-1.462-1.221-2.557-1.221-1.067 0-1.907.407-2.523 1.221-.609.809-.922 1.934-.94 3.375v.94c0 1.471.308 2.629.923 3.472.62.838 1.473 1.257 2.557 1.257 1.09 0 1.934-.395 2.532-1.186.597-.797.905-1.937.922-3.42v-.949zM108.454 58h-1.696v-5.915h-6.451V58H98.62V45.203h1.688v5.502h6.451v-5.502h1.696V58zm14.705 3.138h-1.679V58h-9.185v3.147h-1.687l-.009-4.527h1.046c.551-.621.987-1.453 1.309-2.496.329-1.049.534-2.197.616-3.445l.281-5.476h7.655V56.62h1.67l-.017 4.518zm-9.589-4.518h6.24V46.592h-4.333l-.185 3.761c-.076 1.471-.272 2.725-.589 3.762-.31 1.037-.688 1.872-1.133 2.505zm19.678-11.417h1.688V58h-1.688v-9.861l-6.3 9.861h-1.697V45.203h1.697v9.861l6.301-9.86zm4.817 0h1.696V56.62h6.311V45.203h1.687v11.382h1.345l-.158 4.5h-1.521V58h-9.36V45.203zm21.181 0h1.688V58h-1.688v-9.861l-6.3 9.861h-1.697V45.203h1.697v9.861l6.301-9.86zm14.608 6.812c0 1.254-.211 2.35-.633 3.287-.422.931-1.02 1.643-1.793 2.136-.773.492-1.676.738-2.707.738-1.008 0-1.901-.246-2.681-.739-.779-.497-1.385-1.204-1.819-2.118-.428-.92-.647-1.983-.659-3.19v-.923c0-1.23.214-2.317.641-3.26.428-.944 1.032-1.665 1.811-2.163.785-.504 1.682-.756 2.689-.756 1.026 0 1.928.25 2.707.747.786.493 1.389 1.21 1.811 2.154.422.937.633 2.03.633 3.278v.809zm-1.679-.827c0-1.517-.305-2.68-.914-3.489-.609-.814-1.462-1.221-2.558-1.221-1.066 0-1.907.407-2.522 1.221-.609.809-.923 1.934-.94 3.375v.94c0 1.471.307 2.629.922 3.472.622.838 1.474 1.257 2.558 1.257 1.09 0 1.934-.395 2.531-1.186.598-.797.906-1.937.923-3.42v-.949zM186.221 58h-1.696v-5.915h-6.451V58h-1.688V45.203h1.688v5.502h6.451v-5.502h1.696V58zm10.231-5.915h-5.546v4.535h6.442V58h-8.13V45.203h8.042v1.389h-6.354v4.113h5.546v1.38zm4.684.905V58h-1.687V45.203h4.719c1.401 0 2.496.357 3.287 1.072.797.715 1.196 1.662 1.196 2.84 0 1.241-.39 2.2-1.169 2.873-.774.668-1.884 1.002-3.331 1.002h-3.015zm0-1.38h3.032c.903 0 1.594-.21 2.075-.633.48-.427.72-1.042.72-1.845 0-.762-.24-1.371-.72-1.828-.481-.457-1.14-.695-1.978-.712h-3.129v5.018zm11.435-1.186h3.181c1.336.017 2.379.36 3.129 1.028s1.125 1.576 1.125 2.725c0 1.154-.378 2.074-1.134 2.76-.755.685-1.787 1.04-3.093 1.063h-4.896V45.203h1.688v5.22zm0 1.389v4.807h3.085c.838 0 1.488-.222 1.951-.668.469-.445.703-1.043.703-1.793 0-.72-.226-1.289-.677-1.705-.445-.416-1.081-.63-1.907-.642h-3.155zM223.241 58h-1.688V45.203h1.688V58z" fill="#FAF9F7"/><path d="M19.207 21L1 31.5v40L19.207 82" stroke="#423D33" stroke-width="2"/><g filter="url(#filter0_d)"><path d="M285 10l36 20.757V72.27l-36 20.757-36-20.757V30.757L285 10z" fill="url(#paint3_radial)"/><path d="M250 31.334l35-20.18 35 20.18v40.358l-35 20.18-35-20.18V31.335z" stroke="#423D33" stroke-width="2"/></g><g filter="url(#filter1_d)"><path fill-rule="evenodd" clip-rule="evenodd" d="M258 34a2 2 0 00-2 2v12.877a2 2 0 002 2h53.6a2 2 0 002-2V36a2 2 0 00-2-2H258zm39.103 1.239a1 1 0 00-1 1v3.729a1 1 0 001 1h14.258a1 1 0 001-1v-3.73a1 1 0 00-1-1h-14.258z" fill="#D80000"/><rect x="256.774" y="41.587" width="56.206" height="8.361" rx="1" fill="#504A40"/><path d="M257.315 43.121a1 1 0 01.997-.915h53.131a1 1 0 01.997.915l.293 3.42a1 1 0 01-.997 1.085h-53.718a1 1 0 01-.996-1.086l.293-3.419zm52.121 13.341c.279.063.357.42.123.585-2.46 1.736-5.923 3.189-10.078 4.22-4.49 1.117-9.619 1.7-14.838 1.688-5.219-.012-10.333-.619-14.794-1.755-4.123-1.05-7.546-2.517-9.961-4.262a.33.33 0 01.13-.589.348.348 0 01.288.066c2.348 1.826 5.816 3.358 10.049 4.436 4.31 1.098 9.25 1.684 14.293 1.696 5.043.011 9.998-.552 14.337-1.63 4.263-1.06 7.772-2.576 10.168-4.394a.342.342 0 01.283-.061z" fill="#D80000"/><path d="M309.436 60.797c.279.063.357.42.123.585-2.46 1.737-5.923 3.189-10.078 4.221-4.49 1.116-9.619 1.7-14.838 1.687-5.219-.012-10.333-.618-14.794-1.755-4.123-1.05-7.546-2.516-9.961-4.262-.233-.169-.152-.526.13-.589a.348.348 0 01.288.066c2.348 1.827 5.816 3.359 10.049 4.437 4.31 1.097 9.25 1.683 14.293 1.695 5.043.011 9.998-.552 14.337-1.63 4.263-1.059 7.772-2.576 10.168-4.393a.343.343 0 01.283-.062z" fill="#D64545"/><path d="M309.436 65.132c.279.064.357.42.123.586-2.46 1.736-5.923 3.188-10.078 4.22-4.49 1.117-9.619 1.7-14.838 1.688-5.219-.012-10.333-.619-14.794-1.755-4.123-1.05-7.546-2.517-9.961-4.262a.33.33 0 01.13-.589.348.348 0 01.288.066c2.348 1.826 5.816 3.358 10.049 4.436 4.31 1.098 9.25 1.684 14.293 1.695 5.043.012 9.998-.551 14.337-1.63 4.263-1.059 7.772-2.575 10.168-4.393a.343.343 0 01.283-.062z" fill="#D80000"/></g><defs><linearGradient id="paint0_linear" x1="124.908" y1="31" x2="124.908" y2="72" gradientUnits="userSpaceOnUse"><stop stop-color="#D80000"/><stop offset=".489" stop-color="#DC9090" stop-opacity=".511"/><stop offset="1" stop-color="#D80000"/></linearGradient><linearGradient id="paint1_linear" x1="133.759" y1="22" x2="133.759" y2="31" gradientUnits="userSpaceOnUse"><stop stop-color="#fff" stop-opacity="0"/><stop offset="1" stop-color="#D3CEC4"/></linearGradient><linearGradient id="paint2_linear" x1="134.011" y1="72" x2="134.011" y2="81" gradientUnits="userSpaceOnUse"><stop stop-color="#D3CEC4"/><stop offset="1" stop-color="#fff" stop-opacity="0"/></linearGradient><filter id="filter0_d" x="239" y="0" width="92" height="103.027" filterUnits="userSpaceOnUse" color-interpolation-filters="sRGB"><feFlood flood-opacity="0" result="BackgroundImageFix"/><feColorMatrix in="SourceAlpha" values="0 0 0 0 0 0 0 0 0 0 0 0 0 0 0 0 0 0 127 0"/><feOffset/><feGaussianBlur stdDeviation="5"/><feColorMatrix values="0 0 0 0 0 0 0 0 0 0 0 0 0 0 0 0 0 0 0.25 0"/><feBlend in2="BackgroundImageFix" result="effect1_dropShadow"/><feBlend in="SourceGraphic" in2="effect1_dropShadow" result="shape"/></filter><filter id="filter1_d" x="252" y="34" width="65.6" height="45.626" filterUnits="userSpaceOnUse" color-interpolation-filters="sRGB"><feFlood flood-opacity="0" result="BackgroundImageFix"/><feColorMatrix in="SourceAlpha" values="0 0 0 0 0 0 0 0 0 0 0 0 0 0 0 0 0 0 127 0"/><feOffset dy="4"/><feGaussianBlur stdDeviation="2"/><feColorMatrix values="0 0 0 0 0 0 0 0 0 0 0 0 0 0 0 0 0 0 0.25 0"/><feBlend in2="BackgroundImageFix" result="effect1_dropShadow"/><feBlend in="SourceGraphic" in2="effect1_dropShadow" result="shape"/></filter><radialGradient id="paint3_radial" cx="0" cy="0" r="1" gradientUnits="userSpaceOnUse" gradientTransform="matrix(0 41.4865 -35.9766 0 285 51.514)"><stop stop-color="#fff" stop-opacity="0"/><stop offset="1" stop-color="#E8E6E1"/></radialGradient></defs></svg>