<svg width="208" height="239" viewBox="0 0 208 239" fill="none" xmlns="http://www.w3.org/2000/svg"><g clip-path="url(#clip0)" filter="url(#filter0_d)"><path d="M6 58.813L104 2.31l98 56.504v113.005l-98 56.504-98-56.504V58.813z" stroke="#504A40" stroke-width="4"/><path d="M29.676 60.81h148.648v5.316c0 5.523-4.477 10-10 10H39.676c-5.523 0-10-4.477-10-10v-5.315z" fill="#504A40"/><path d="M52.198 76.576h103.604V90.11a5.001 5.001 0 01-1.663 3.724l-20.787 18.629a5 5 0 01-3.337 1.277h-52.03a5 5 0 01-3.337-1.277L53.86 93.832a5 5 0 01-1.663-3.723V76.577zm50.451 63.064h3.153v54.054h-3.153z" fill="#BA2525"/><path fill="#BA2525" d="M102.649 139.64h3.153v54.054h-3.153zm-50.39-20.27l2.415 2.026-34.745 41.408-2.415-2.027z"/><path fill="#BA2525" d="M52.259 119.37l2.415 2.026-34.745 41.408-2.415-2.027zm105.958-1.802l-2.415 2.027 34.745 41.407 2.415-2.026z"/><path fill="#BA2525" d="M158.217 117.568l-2.415 2.027 34.745 41.407 2.415-2.026z"/></g><defs><clipPath id="clip0"><path fill="#fff" transform="translate(4)" d="M0 0h200v230.631H0z"/></clipPath><filter id="filter0_d" x="0" y="0" width="208" height="238.631" filterUnits="userSpaceOnUse" color-interpolation-filters="sRGB"><feFlood flood-opacity="0" result="BackgroundImageFix"/><feColorMatrix in="SourceAlpha" values="0 0 0 0 0 0 0 0 0 0 0 0 0 0 0 0 0 0 127 0"/><feOffset dy="4"/><feGaussianBlur stdDeviation="2"/><feColorMatrix values="0 0 0 0 0 0 0 0 0 0 0 0 0 0 0 0 0 0 0.25 0"/><feBlend in2="BackgroundImageFix" result="effect1_dropShadow"/><feBlend in="SourceGraphic" in2="effect1_dropShadow" result="shape"/></filter></defs></svg>