<svg width="208" height="239" viewBox="0 0 208 239" fill="none" xmlns="http://www.w3.org/2000/svg"><g filter="url(#filter0_d)"><path d="M6 58.813L104 2.31l98 56.504v113.005l-98 56.504-98-56.504V58.813z" stroke="#504A40" stroke-width="4"/><path fill-rule="evenodd" clip-rule="evenodd" d="M78.667 65H77v16.666h-5.334V87H55v1.667h16.666V90H55v1.667h16.666V93H55v1.667h16.666V96H55v1.667h16.666V99H55v1.667h16.666V102H55v1.667h16.666V105H55v1.667h16.666V108H55v1.667h16.666V111H55v1.667h16.666V114H55v1.667h16.666V117H55v1.667h16.666V120H55v1.667h16.666V123H55v1.667h16.666V126H55v1.666h16.666V129H55v1.667h16.666V132H55v1.667h16.666V135H55v1.667h16.666V138H55v1.667h16.666V141H55v1.666h16.666v5.667h66.667v-5.667H155V141h-16.667V81.666h-5.666V65H131v16.666h-1.333V65H128v16.666h-1.333V65H125v16.666h-1.333V65H122v16.666h-1.334V65H119v16.666h-1.333V65H116v16.666h-1.333V65H113v16.666h-1.333V65H110v16.666h-1.333V65H107v16.666h-1.334V65H104v16.666h-1.333V65H101v16.666h-1.334V65H98v16.666h-1.333V65H95v16.666h-1.333V65H92v16.666h-1.333V65H89v16.666h-1.333V65H86v16.666h-1.334V65H83v16.666h-1.333V65H80v16.666h-1.333V65zM77 148.333h1.667V165H77v-16.667zm3 0h1.667V165H80v-16.667zm3 0h1.666V165H83v-16.667zm3 0h1.667V165H86v-16.667zm3 0h1.667V165H89v-16.667zm3 0h1.667V165H92v-16.667zm3 0h1.667V165H95v-16.667zm3 0h1.666V165H98v-16.667zm3 0h1.667V165H101v-16.667zm3 0h1.666V165H104v-16.667zm3 0h1.667V165H107v-16.667zm3 0h1.667V165H110v-16.667zm3 0h1.667V165H113v-16.667zm3 0h1.667V165H116v-16.667zm3 0h1.666V165H119v-16.667zm3 0h1.667V165H122v-16.667zm3 0h1.667V165H125v-16.667zm3 0h1.667V165H128v-16.667zM138.333 138v1.667H155V138h-16.667zm0-1.333V135H155v1.667h-16.667zm0-4.667v1.667H155V132h-16.667zm0-1.333V129H155v1.667h-16.667zm0-4.667v1.666H155V126h-16.667zm0-1.333V123H155v1.667h-16.667zm0-4.667v1.667H155V120h-16.667zm0-1.333V117H155v1.667h-16.667zm0-4.667v1.667H155V114h-16.667zm0-1.333V111H155v1.667h-16.667zm0-4.667v1.667H155V108h-16.667zm0-1.333V105H155v1.667h-16.667zm0-4.667v1.667H155V102h-16.667zm0-1.333V99H155v1.667h-16.667zm0-4.667v1.667H155V96h-16.667zm0-1.333V93H155v1.667h-16.667zm0-4.667v1.667H155V90h-16.667zm0-1.333V87H155v1.667h-16.667zM131 148.333h1.667V165H131v-16.667zM80 87h50.438v46.515h-12.557v-3h9.557V90H83v40.515h9.557v3H80V87zm20.761 11.414h-1.5v3.21h-7.134v20.834h2.854v17.656h5.706v3.672h3v-10.344h-3v3.672h-2.706v-19.293h4.279v-3.21h5.56v3.21h4.281v19.293h-2.707v-3.672h-3v10.344h3v-3.672h5.707v-17.656h2.854v-20.834h-6.421v-3.21h-10.773zm14.194 16.407v-10.197h-6.421v-3.21h-6.273v3.21h-7.134v10.197h4.133v-3.21h11.561v3.21h4.134z" fill="#504A40"/><g filter="url(#filter1_d)"><path d="M158.562 183.934H50.058a5 5 0 01-5-5V91.526a5 5 0 00-5-5h-6.116c-4.799 0-6.842-6.105-3.009-8.993l70.656-53.248a5 5 0 016.047.02l69.632 53.249c3.798 2.904 1.744 8.972-3.038 8.972h-5.668a5 5 0 00-5 5v87.408a5 5 0 01-5 5z" stroke="#D64545" stroke-width="5"/></g></g><defs><filter id="filter0_d" x="0" y="0" width="208" height="238.631" filterUnits="userSpaceOnUse" color-interpolation-filters="sRGB"><feFlood flood-opacity="0" result="BackgroundImageFix"/><feColorMatrix in="SourceAlpha" values="0 0 0 0 0 0 0 0 0 0 0 0 0 0 0 0 0 0 127 0"/><feOffset dy="4"/><feGaussianBlur stdDeviation="2"/><feColorMatrix values="0 0 0 0 0 0 0 0 0 0 0 0 0 0 0 0 0 0 0.25 0"/><feBlend in2="BackgroundImageFix" result="effect1_dropShadow"/><feBlend in="SourceGraphic" in2="effect1_dropShadow" result="shape"/></filter><filter id="filter1_d" x="22.428" y="20.777" width="163.317" height="173.657" filterUnits="userSpaceOnUse" color-interpolation-filters="sRGB"><feFlood flood-opacity="0" result="BackgroundImageFix"/><feColorMatrix in="SourceAlpha" values="0 0 0 0 0 0 0 0 0 0 0 0 0 0 0 0 0 0 127 0"/><feOffset dy="4"/><feGaussianBlur stdDeviation="2"/><feColorMatrix values="0 0 0 0 0 0 0 0 0 0 0 0 0 0 0 0 0 0 0.25 0"/><feBlend in2="BackgroundImageFix" result="effect1_dropShadow"/><feBlend in="SourceGraphic" in2="effect1_dropShadow" result="shape"/></filter></defs></svg>