<svg width="261" height="85" viewBox="0 0 261 85" fill="none" xmlns="http://www.w3.org/2000/svg"><path fill="#D80000" d="M1 26.406h193.606v32.031H1z"/><path fill="url(#paint0_linear)" d="M1 26.406h193.606v32.031H1z"/><path d="M195.001 26.406l11.854-7.031H14.829L2.58 26.406h192.421z" fill="url(#paint1_linear)"/><path d="M195.001 58.438H2.581l12.248 7.03H207.25l-12.249-7.03z" fill="url(#paint2_linear)"/><path d="M56.852 39.703h1.312v9.953h-1.312v-7.67l-4.902 7.67h-1.319v-9.953h1.32v7.67l4.9-7.67zm8.62.998h.212a4.2 4.2 0 012.057.526c.62.347 1.101.825 1.443 1.436.346.606.52 1.285.52 2.037 0 .757-.174 1.443-.52 2.058a3.733 3.733 0 01-1.436 1.442c-.61.342-1.29.517-2.037.527h-.24v1.34h-1.27v-1.34h-.192a4.21 4.21 0 01-2.078-.52 3.719 3.719 0 01-1.45-1.435c-.341-.611-.512-1.297-.512-2.058 0-.761.17-1.447.513-2.058a3.72 3.72 0 011.449-1.435 4.21 4.21 0 012.078-.52h.191v-1.408h1.272v1.408zm-1.463 1.032c-.857 0-1.536.265-2.037.793-.497.524-.745 1.254-.745 2.188 0 .939.248 1.67.745 2.194.497.52 1.18.78 2.05.78h.178v-5.955h-.191zm1.463 0v5.955h.191c.87 0 1.55-.267 2.037-.8.493-.538.739-1.267.739-2.188 0-.911-.246-1.634-.739-2.167-.487-.533-1.175-.8-2.064-.8h-.164zm13.542 3.268c0 .975-.164 1.828-.492 2.557-.328.724-.793 1.278-1.395 1.66-.601.384-1.303.575-2.105.575-.784 0-1.48-.191-2.085-.574-.606-.388-1.078-.937-1.415-1.648-.333-.715-.504-1.542-.513-2.481v-.718c0-.957.166-1.802.499-2.536.333-.734.802-1.294 1.408-1.682.61-.392 1.308-.588 2.092-.588.797 0 1.5.194 2.106.581.61.383 1.08.942 1.408 1.675.328.73.492 1.58.492 2.55v.629zm-1.306-.643c0-1.18-.237-2.085-.71-2.713-.475-.634-1.138-.95-1.99-.95-.83 0-1.483.316-1.962.95-.474.628-.718 1.503-.731 2.624v.732c0 1.144.239 2.044.717 2.7.484.652 1.147.978 1.99.978.847 0 1.504-.308 1.968-.923.465-.62.705-1.506.718-2.66v-.738zm4.587 1.402v3.896h-1.312v-9.953h3.67c1.09 0 1.942.278 2.557.834.62.556.93 1.292.93 2.208 0 .966-.303 1.711-.91 2.236-.6.519-1.465.779-2.59.779h-2.345zm0-1.073h2.358c.702 0 1.24-.164 1.614-.493.374-.332.56-.81.56-1.435 0-.593-.186-1.067-.56-1.422-.374-.356-.887-.54-1.538-.554h-2.434v3.904zm9.215-4.984l3.254 8.121 3.254-8.12h1.702v9.952h-1.313V45.78l.124-4.183-3.268 8.06h-1.005l-3.26-8.04.13 4.163v3.876h-1.313v-9.953h1.695zm16.146 7.356h-4.169l-.937 2.597h-1.354l3.801-9.953h1.149l3.807 9.953h-1.346l-.951-2.597zm-3.773-1.08h3.384l-1.696-4.656-1.688 4.655zm7.451-6.276h1.32v8.88h4.908v-8.88h1.312v8.853h1.046l-.123 3.5h-1.183v-2.4h-7.28v-9.953zm16.475 0h1.312v9.953h-1.312v-7.67l-4.902 7.67h-1.319v-9.953h1.319v7.67l4.902-7.67zm8.914 9.953V45.78h-2.297l-2.058 3.876h-1.401l2.311-4.238c-1.286-.506-1.928-1.41-1.928-2.714 0-.948.31-1.684.929-2.208.625-.529 1.491-.793 2.598-.793h3.165v9.953h-1.319zm-4.061-6.952c0 .602.187 1.085.561 1.45.378.364.902.548 1.572.553h1.928v-3.924h-1.866c-.711 0-1.256.169-1.634.506-.374.337-.561.809-.561 1.415zm18.895 2.297c0 .975-.164 1.828-.492 2.557-.328.724-.793 1.278-1.395 1.66-.601.384-1.303.575-2.105.575-.784 0-1.479-.191-2.085-.574-.606-.388-1.078-.937-1.415-1.648-.333-.715-.504-1.542-.513-2.481v-.718c0-.957.166-1.802.499-2.536.333-.734.802-1.294 1.408-1.682.611-.392 1.308-.588 2.092-.588.797 0 1.499.194 2.105.581.611.383 1.081.942 1.409 1.675.328.73.492 1.58.492 2.55v.629zm-1.306-.643c0-1.18-.237-2.085-.711-2.713-.474-.634-1.137-.95-1.989-.95-.829 0-1.483.316-1.962.95-.474.628-.718 1.503-.731 2.624v.732c0 1.144.239 2.044.717 2.7.483.652 1.147.978 1.99.978.847 0 1.504-.308 1.968-.923.465-.62.704-1.506.718-2.66v-.738zm14.397 5.298h-1.32v-4.6h-5.017v4.6h-1.313v-9.953h1.313v4.28h5.017v-4.28h1.32v9.953zm7.95-2.597h-4.17l-.937 2.597h-1.353l3.801-9.953h1.148l3.808 9.953h-1.347l-.95-2.597zm-3.774-1.08h3.384l-1.695-4.656-1.689 4.655zm14.65.519c-.123 1.053-.513 1.866-1.169 2.44-.652.57-1.52.855-2.605.855-1.175 0-2.119-.422-2.83-1.265-.706-.843-1.059-1.97-1.059-3.383v-.958c0-.925.164-1.738.492-2.44.333-.702.802-1.24 1.408-1.613.606-.379 1.308-.568 2.106-.568 1.057 0 1.905.297 2.543.89.638.587 1.009 1.403 1.114 2.446h-1.32c-.113-.793-.362-1.367-.745-1.722-.378-.356-.909-.533-1.592-.533-.839 0-1.497.31-1.976.93-.474.619-.711 1.5-.711 2.645v.963c0 1.08.226 1.94.677 2.578.451.638 1.082.957 1.893.957.73 0 1.288-.164 1.675-.492.392-.333.652-.91.779-1.73h1.32z" fill="#FAF9F7"/><path d="M15.224 18.594L1 26.797v31.25l14.224 8.203" stroke="#423D33" stroke-width="2"/><g filter="url(#filter0_d)"><path d="M222.875 10L251 26.216V58.65l-28.125 16.216L194.75 58.65V26.216L222.875 10z" fill="url(#paint3_radial)"/><path d="M195.75 26.794l27.125-15.64L250 26.794v31.277l-27.125 15.64-27.125-15.64V26.794z" stroke="#423D33" stroke-width="2"/></g><g filter="url(#filter1_d)"><path d="M217.5 48l-1.5-1c1-1.5 1-2 2.5-6v-.001c.5-1.499.5-1.5.5-2.999 0-1.5.5-3.5 2-4.5 2-.5 3.5-1.5 3 3-2 16-1 21 1 21.5 1.5 0 4.5-2 8.5-12l1.5 1c-1 3-7 15.5-11.5 15-4-.5-6-5-5-16l-1 2z" fill="#D80000"/></g><g filter="url(#filter2_d)"><circle cx="223" cy="26" r="3" fill="#D80000"/></g><defs><linearGradient id="paint0_linear" x1="97.803" y1="26.406" x2="97.803" y2="58.438" gradientUnits="userSpaceOnUse"><stop stop-color="#D80000"/><stop offset=".489" stop-color="#DC9090" stop-opacity=".511"/><stop offset="1" stop-color="#D80000"/></linearGradient><linearGradient id="paint1_linear" x1="104.718" y1="19.375" x2="104.718" y2="26.406" gradientUnits="userSpaceOnUse"><stop stop-color="#fff" stop-opacity="0"/><stop offset="1" stop-color="#D3CEC4"/></linearGradient><linearGradient id="paint2_linear" x1="104.915" y1="58.438" x2="104.915" y2="65.469" gradientUnits="userSpaceOnUse"><stop stop-color="#D3CEC4"/><stop offset="1" stop-color="#fff" stop-opacity="0"/></linearGradient><filter id="filter0_d" x="184.75" y="0" width="76.25" height="84.865" filterUnits="userSpaceOnUse" color-interpolation-filters="sRGB"><feFlood flood-opacity="0" result="BackgroundImageFix"/><feColorMatrix in="SourceAlpha" values="0 0 0 0 0 0 0 0 0 0 0 0 0 0 0 0 0 0 127 0"/><feOffset/><feGaussianBlur stdDeviation="5"/><feColorMatrix values="0 0 0 0 0 0 0 0 0 0 0 0 0 0 0 0 0 0 0.25 0"/><feBlend in2="BackgroundImageFix" result="effect1_dropShadow"/><feBlend in="SourceGraphic" in2="effect1_dropShadow" result="shape"/></filter><filter id="filter1_d" x="212" y="33.043" width="27" height="36.972" filterUnits="userSpaceOnUse" color-interpolation-filters="sRGB"><feFlood flood-opacity="0" result="BackgroundImageFix"/><feColorMatrix in="SourceAlpha" values="0 0 0 0 0 0 0 0 0 0 0 0 0 0 0 0 0 0 127 0"/><feOffset dy="4"/><feGaussianBlur stdDeviation="2"/><feColorMatrix values="0 0 0 0 0 0 0 0 0 0 0 0 0 0 0 0 0 0 0.25 0"/><feBlend in2="BackgroundImageFix" result="effect1_dropShadow"/><feBlend in="SourceGraphic" in2="effect1_dropShadow" result="shape"/></filter><filter id="filter2_d" x="216" y="23" width="14" height="14" filterUnits="userSpaceOnUse" color-interpolation-filters="sRGB"><feFlood flood-opacity="0" result="BackgroundImageFix"/><feColorMatrix in="SourceAlpha" values="0 0 0 0 0 0 0 0 0 0 0 0 0 0 0 0 0 0 127 0"/><feOffset dy="4"/><feGaussianBlur stdDeviation="2"/><feColorMatrix values="0 0 0 0 0 0 0 0 0 0 0 0 0 0 0 0 0 0 0.25 0"/><feBlend in2="BackgroundImageFix" result="effect1_dropShadow"/><feBlend in="SourceGraphic" in2="effect1_dropShadow" result="shape"/></filter><radialGradient id="paint3_radial" cx="0" cy="0" r="1" gradientUnits="userSpaceOnUse" gradientTransform="matrix(0 32.4113 -28.1067 0 222.886 42.459)"><stop stop-color="#fff" stop-opacity="0"/><stop offset="1" stop-color="#E8E6E1"/></radialGradient></defs></svg>