<svg width="208" height="239" viewBox="0 0 208 239" fill="none" xmlns="http://www.w3.org/2000/svg"><g filter="url(#filter0_d)"><path d="M6 58.813L104 2.31l98 56.504v113.005l-98 56.504-98-56.504V58.813z" stroke="#504A40" stroke-width="4"/></g><g filter="url(#filter1_d)"><path d="M64.964 170h-6.75v-51.188h6.75V170zm15.525-20.039V170h-6.75v-51.188h18.879c5.602 0 9.984 1.43 13.148 4.29 3.188 2.859 4.782 6.644 4.782 11.355 0 4.969-1.559 8.801-4.676 11.496-3.094 2.672-7.535 4.008-13.324 4.008H80.489zm0-5.52h12.129c3.61 0 6.375-.843 8.297-2.531 1.922-1.711 2.883-4.172 2.883-7.383 0-3.047-.961-5.484-2.883-7.312-1.922-1.828-4.559-2.777-7.91-2.848H80.489v20.074z" fill="#625D52"/></g><g filter="url(#filter2_d)"><path d="M84.627 74.51L73.2 60.89c-1.314-1.566-1.58-3.863-.294-5.452 24.92-30.777 121.144 83.897 86.507 103.095-1.788.992-4.004.33-5.318-1.236l-11.427-13.618c-2.711-3.232.122-8.36 2.895-11.539 12.553-14.392-32.717-68.343-49.07-58.48-3.612 2.18-9.154 4.08-11.866.848z" fill="#625D52"/></g><defs><filter id="filter0_d" x="0" y="0" width="208" height="238.631" filterUnits="userSpaceOnUse" color-interpolation-filters="sRGB"><feFlood flood-opacity="0" result="BackgroundImageFix"/><feColorMatrix in="SourceAlpha" values="0 0 0 0 0 0 0 0 0 0 0 0 0 0 0 0 0 0 127 0"/><feOffset dy="4"/><feGaussianBlur stdDeviation="2"/><feColorMatrix values="0 0 0 0 0 0 0 0 0 0 0 0 0 0 0 0 0 0 0.25 0"/><feBlend in2="BackgroundImageFix" result="effect1_dropShadow"/><feBlend in="SourceGraphic" in2="effect1_dropShadow" result="shape"/></filter><filter id="filter1_d" x="54.214" y="118.812" width="60.334" height="59.188" filterUnits="userSpaceOnUse" color-interpolation-filters="sRGB"><feFlood flood-opacity="0" result="BackgroundImageFix"/><feColorMatrix in="SourceAlpha" values="0 0 0 0 0 0 0 0 0 0 0 0 0 0 0 0 0 0 127 0"/><feOffset dy="4"/><feGaussianBlur stdDeviation="2"/><feColorMatrix values="0 0 0 0 0 0 0 0 0 0 0 0 0 0 0 0 0 0 0.25 0"/><feBlend in2="BackgroundImageFix" result="effect1_dropShadow"/><feBlend in="SourceGraphic" in2="effect1_dropShadow" result="shape"/></filter><filter id="filter2_d" x="68.067" y="50.224" width="102.782" height="116.779" filterUnits="userSpaceOnUse" color-interpolation-filters="sRGB"><feFlood flood-opacity="0" result="BackgroundImageFix"/><feColorMatrix in="SourceAlpha" values="0 0 0 0 0 0 0 0 0 0 0 0 0 0 0 0 0 0 127 0"/><feOffset dy="4"/><feGaussianBlur stdDeviation="2"/><feColorMatrix values="0 0 0 0 0 0 0 0 0 0 0 0 0 0 0 0 0 0 0.25 0"/><feBlend in2="BackgroundImageFix" result="effect1_dropShadow"/><feBlend in="SourceGraphic" in2="effect1_dropShadow" result="shape"/></filter></defs></svg>