<svg width="331" height="104" viewBox="0 0 331 104" fill="none" xmlns="http://www.w3.org/2000/svg"><path fill="#D80000" d="M1 31h247.816v41H1z"/><path fill="url(#paint0_linear)" d="M1 31h247.816v41H1z"/><path d="M249.322 31l15.172-9H18.701L3.023 31h246.299z" fill="url(#paint1_linear)"/><path d="M249.322 72H3.023l15.678 9H265l-15.678-9z" fill="url(#paint2_linear)"/><path d="M105.845 46.592h-4.113V58h-1.679V46.592h-4.104v-1.389h9.896v1.389zm9.132 5.493h-5.546v4.535h6.442V58h-8.129V45.203h8.042v1.389h-6.355v4.113h5.546v1.38zm12.674-6.882V58h-1.688V46.592h-4.588l-.228 5.071c-.088 1.7-.264 2.977-.528 3.832-.257.856-.638 1.486-1.142 1.89-.504.398-1.178.603-2.022.615h-.553v-1.38l.351-.017c.545-.041.964-.217 1.257-.528.293-.316.516-.817.668-1.503.152-.685.261-1.74.325-3.164l.264-6.205h7.884zm10.301 6.882h-5.546v4.535h6.442V58h-8.13V45.203h8.042v1.389h-6.354v4.113h5.546v1.38zm9.316-5.599h.272a5.406 5.406 0 012.646.677 4.716 4.716 0 011.854 1.846c.446.78.668 1.652.668 2.619 0 .973-.222 1.854-.668 2.645a4.795 4.795 0 01-1.845 1.855c-.785.44-1.659.665-2.619.677h-.308v1.722h-1.635v-1.722h-.246c-.978 0-1.869-.223-2.672-.668a4.778 4.778 0 01-1.863-1.846c-.44-.785-.659-1.667-.659-2.645 0-.979.219-1.86.659-2.646a4.778 4.778 0 011.863-1.846c.803-.445 1.694-.668 2.672-.668h.246v-1.81h1.635v1.81zm-1.881 1.328c-1.101 0-1.975.34-2.619 1.019-.639.674-.958 1.611-.958 2.813 0 1.206.319 2.147.958 2.82.639.669 1.518 1.003 2.637 1.003h.228v-7.656h-.246zm1.881 0v7.655h.246c1.119 0 1.992-.343 2.619-1.029.633-.691.949-1.628.949-2.812 0-1.172-.316-2.1-.949-2.786-.627-.686-1.512-1.029-2.654-1.029h-.211zm17.411 4.2c0 1.255-.211 2.35-.633 3.288-.422.931-1.019 1.643-1.793 2.136-.773.492-1.676.738-2.707.738-1.008 0-1.901-.246-2.68-.739-.78-.497-1.386-1.204-1.82-2.118-.427-.92-.647-1.983-.659-3.19v-.923c0-1.23.214-2.317.642-3.26.427-.944 1.031-1.665 1.81-2.163.785-.504 1.682-.756 2.69-.756 1.025 0 1.927.25 2.707.747.785.493 1.388 1.21 1.81 2.154.422.937.633 2.03.633 3.278v.809zM163 51.189c0-1.517-.304-2.68-.914-3.489-.609-.814-1.462-1.221-2.557-1.221-1.067 0-1.908.407-2.523 1.221-.609.809-.923 1.934-.94 3.375v.94c0 1.471.307 2.629.923 3.472.621.838 1.473 1.257 2.557 1.257 1.09 0 1.934-.395 2.531-1.186.598-.797.906-1.937.923-3.42v-.949zM177.045 58h-1.696v-5.915h-6.451V58h-1.688V45.203h1.688v5.502h6.451v-5.502h1.696V58zm11.066-12.797h1.687V58h-1.687v-9.861L181.809 58h-1.696V45.203h1.696v9.861l6.302-9.86zM199.572 58v-4.983h-2.953L193.973 58h-1.802l2.971-5.45c-1.652-.65-2.479-1.813-2.479-3.488 0-1.22.399-2.165 1.196-2.84.802-.679 1.916-1.019 3.34-1.019h4.069V58h-1.696zm-5.221-8.938c0 .773.24 1.394.721 1.863.486.469 1.16.706 2.021.712h2.479v-5.045h-2.4c-.914 0-1.614.217-2.1.65-.481.434-.721 1.04-.721 1.82z" fill="#FAF9F7"/><path d="M19.207 21L1 31.5v40L19.207 82" stroke="#423D33" stroke-width="2"/><g filter="url(#filter0_d)"><path d="M285 10l36 20.757V72.27l-36 20.757-36-20.757V30.757L285 10z" fill="url(#paint3_radial)"/><path d="M250 31.334l35-20.18 35 20.18v40.358l-35 20.18-35-20.18V31.335z" stroke="#423D33" stroke-width="2"/></g><g filter="url(#filter1_d)"><path fill-rule="evenodd" clip-rule="evenodd" d="M270.995 28.96l6.897 8.22c.542.646 1.628.34 1.995-.419 5.31-10.973 32.163 21.029 20.434 24.353-.811.23-1.301 1.246-.758 1.892l6.897 8.22a.964.964 0 001.096.27c16.878-7.181-26.634-59.037-36.638-43.662a.963.963 0 00.077 1.126zM265 66.065h2.25V49.002H265v17.063zm7.425 0v-6.68h4.02c1.929 0 3.41-.445 4.441-1.336 1.039-.898 1.559-2.176 1.559-3.832 0-1.57-.532-2.832-1.594-3.785-1.055-.953-2.516-1.43-4.383-1.43h-6.293v17.063h2.25zm4.043-8.52h-4.043v-6.691h4.172c1.117.023 1.996.34 2.637.949.64.61.961 1.422.961 2.437 0 1.07-.321 1.891-.961 2.461-.641.563-1.563.844-2.766.844z" fill="#D80000"/></g><defs><linearGradient id="paint0_linear" x1="124.908" y1="31" x2="124.908" y2="72" gradientUnits="userSpaceOnUse"><stop stop-color="#D80000"/><stop offset=".489" stop-color="#DC9090" stop-opacity=".511"/><stop offset="1" stop-color="#D80000"/></linearGradient><linearGradient id="paint1_linear" x1="133.759" y1="22" x2="133.759" y2="31" gradientUnits="userSpaceOnUse"><stop stop-color="#fff" stop-opacity="0"/><stop offset="1" stop-color="#D3CEC4"/></linearGradient><linearGradient id="paint2_linear" x1="134.011" y1="72" x2="134.011" y2="81" gradientUnits="userSpaceOnUse"><stop stop-color="#D3CEC4"/><stop offset="1" stop-color="#fff" stop-opacity="0"/></linearGradient><filter id="filter0_d" x="239" y="0" width="92" height="103.027" filterUnits="userSpaceOnUse" color-interpolation-filters="sRGB"><feFlood flood-opacity="0" result="BackgroundImageFix"/><feColorMatrix in="SourceAlpha" values="0 0 0 0 0 0 0 0 0 0 0 0 0 0 0 0 0 0 127 0"/><feOffset/><feGaussianBlur stdDeviation="5"/><feColorMatrix values="0 0 0 0 0 0 0 0 0 0 0 0 0 0 0 0 0 0 0.25 0"/><feBlend in2="BackgroundImageFix" result="effect1_dropShadow"/><feBlend in="SourceGraphic" in2="effect1_dropShadow" result="shape"/></filter><filter id="filter1_d" x="261" y="25" width="54.404" height="54.568" filterUnits="userSpaceOnUse" color-interpolation-filters="sRGB"><feFlood flood-opacity="0" result="BackgroundImageFix"/><feColorMatrix in="SourceAlpha" values="0 0 0 0 0 0 0 0 0 0 0 0 0 0 0 0 0 0 127 0"/><feOffset dy="4"/><feGaussianBlur stdDeviation="2"/><feColorMatrix values="0 0 0 0 0 0 0 0 0 0 0 0 0 0 0 0 0 0 0.25 0"/><feBlend in2="BackgroundImageFix" result="effect1_dropShadow"/><feBlend in="SourceGraphic" in2="effect1_dropShadow" result="shape"/></filter><radialGradient id="paint3_radial" cx="0" cy="0" r="1" gradientUnits="userSpaceOnUse" gradientTransform="matrix(0 41.4865 -35.9766 0 285 51.514)"><stop stop-color="#fff" stop-opacity="0"/><stop offset="1" stop-color="#E8E6E1"/></radialGradient></defs></svg>