<svg width="331" height="104" viewBox="0 0 331 104" fill="none" xmlns="http://www.w3.org/2000/svg"><path fill="#D80000" d="M1 31h247.816v41H1z"/><path fill="url(#paint0_linear)" d="M1 31h247.816v41H1z"/><path d="M249.322 31l15.172-9H18.701L3.023 31h246.299z" fill="url(#paint1_linear)"/><path d="M249.322 72H3.023l15.678 9H265l-15.678-9z" fill="url(#paint2_linear)"/><path d="M87.617 53.94c-.159 1.353-.66 2.399-1.503 3.137-.838.733-1.955 1.099-3.349 1.099-1.512 0-2.725-.542-3.639-1.626-.908-1.084-1.362-2.534-1.362-4.35v-1.231c0-1.19.211-2.236.633-3.138.428-.902 1.031-1.594 1.81-2.074.78-.486 1.682-.73 2.707-.73 1.36 0 2.45.381 3.27 1.143.82.756 1.298 1.805 1.433 3.146H85.92c-.146-1.02-.466-1.757-.958-2.214-.486-.457-1.169-.686-2.048-.686-1.078 0-1.924.399-2.54 1.195-.609.797-.914 1.931-.914 3.402v1.239c0 1.389.29 2.493.87 3.313.58.82 1.392 1.23 2.435 1.23.938 0 1.655-.21 2.153-.632.504-.428.838-1.169 1.002-2.223h1.697zm10.38-8.737h1.687V58h-1.688v-9.861L91.695 58h-1.697V45.203h1.697v9.861l6.301-9.86zm12.7 1.389h-6.17V58h-1.697V45.203h7.867v1.389zM122.615 58h-1.697v-5.915h-6.451V58h-1.687V45.203h1.687v5.502h6.451v-5.502h1.697V58zm10.221-3.34h-5.361L126.271 58h-1.74l4.886-12.797h1.477L135.789 58h-1.731l-1.222-3.34zm-4.851-1.388h4.35l-2.179-5.986-2.171 5.986zm19.362-8.069V58h-1.687V46.592h-4.588l-.229 5.071c-.088 1.7-.264 2.977-.527 3.832-.258.856-.639 1.486-1.143 1.89-.504.398-1.178.603-2.021.615h-.554v-1.38l.352-.017c.544-.041.963-.217 1.256-.528.293-.316.516-.817.668-1.503.153-.685.261-1.74.326-3.164l.263-6.205h7.884zm11.136 0h1.687V58h-1.687v-9.861L152.181 58h-1.696V45.203h1.696v9.861l6.302-9.86zm11.329 3.437c0-.68-.249-1.22-.747-1.617-.492-.405-1.187-.607-2.083-.607-.75 0-1.38.208-1.89.624-.504.41-.756.92-.756 1.53h-1.687c0-.68.184-1.29.553-1.829.375-.539.897-.958 1.565-1.257a5.284 5.284 0 012.215-.457c1.429 0 2.54.323 3.331.967.791.639 1.186 1.53 1.186 2.672 0 .592-.181 1.13-.545 1.617-.363.486-.87.87-1.52 1.152 1.506.503 2.259 1.502 2.259 2.997 0 1.148-.428 2.06-1.283 2.733-.856.674-1.999 1.01-3.428 1.01-.85 0-1.623-.149-2.321-.447-.691-.305-1.23-.736-1.617-1.293-.386-.556-.58-1.218-.58-1.986h1.688c0 .674.266 1.236.8 1.688.533.445 1.209.668 2.03.668.92 0 1.652-.214 2.197-.642.551-.428.826-.993.826-1.696 0-1.5-.928-2.265-2.786-2.294h-1.582v-1.389h1.573c.856-.017 1.503-.21 1.943-.58.439-.369.659-.89.659-1.564zM181 54.66h-5.361L174.435 58h-1.74l4.886-12.797h1.477L183.953 58h-1.731L181 54.66zm-4.851-1.388h4.35l-2.179-5.986-2.171 5.986zm9.58-8.069h1.696V56.62h6.311V45.203h1.687v11.382h1.345l-.158 4.5h-1.521V58h-9.36V45.203zm21.182 0h1.687V58h-1.687v-9.861L200.609 58h-1.697V45.203h1.697v9.861l6.302-9.86zM218.371 58v-4.983h-2.953L212.773 58h-1.802l2.971-5.45c-1.653-.65-2.479-1.813-2.479-3.488 0-1.22.399-2.165 1.196-2.84.802-.679 1.916-1.019 3.339-1.019h4.07V58h-1.697zm-5.22-8.938c0 .773.24 1.394.72 1.863.487.469 1.161.706 2.022.712h2.478v-5.045h-2.399c-.914 0-1.614.217-2.101.65-.48.434-.72 1.04-.72 1.82z" fill="#FAF9F7"/><path d="M19.207 21L1 31.5v40L19.207 82" stroke="#423D33" stroke-width="2"/><g filter="url(#filter0_d)"><path d="M285 10l36 20.757V72.27l-36 20.757-36-20.757V30.757L285 10z" fill="url(#paint3_radial)"/><path d="M250 31.334l35-20.18 35 20.18v40.358l-35 20.18-35-20.18V31.335z" stroke="#423D33" stroke-width="2"/></g><g filter="url(#filter1_d)"><path fill-rule="evenodd" clip-rule="evenodd" d="M296.57 34.98c-1.013 1.767-2.038 3.553-2.038 6.286 0 1.427.98 3.666 2.156 6.355 3.362 7.688 8.33 19.047-3.394 25.572 27.626-3.603 20.047-26.103 17.054-34.99l-.265-.79c0 13.11-3.406 13.318-4.855 13.406-.224.014-.402.025-.512.08-5.446 0-4.108-4.261-2.499-9.384.912-2.903 1.91-6.082 1.811-8.919-.331-6.165-3.716-9.082-7.294-10.596 3.184 7.142 1.526 10.033-.164 12.98zm-13.185-12.154l-11.146 12.11v-7.431h-6.193V40.44L256 50.623h10.046v22.431h16.239c-8.122-6.381-4.765-11.814-1.771-16.66 1.978-3.2 3.797-6.144 2.046-8.936 5.699 1.226 4.553 5.138 3.521 8.662-.937 3.198-1.781 6.076 2.671 6.338 5.48 0 4.057-3.719 2.182-8.62-2.27-5.93-5.201-13.593 2.635-18.49v-1.79l-10.184-10.733z" fill="#D80000"/></g><defs><linearGradient id="paint0_linear" x1="124.908" y1="31" x2="124.908" y2="72" gradientUnits="userSpaceOnUse"><stop stop-color="#D80000"/><stop offset=".489" stop-color="#DC9090" stop-opacity=".511"/><stop offset="1" stop-color="#D80000"/></linearGradient><linearGradient id="paint1_linear" x1="133.759" y1="22" x2="133.759" y2="31" gradientUnits="userSpaceOnUse"><stop stop-color="#fff" stop-opacity="0"/><stop offset="1" stop-color="#D3CEC4"/></linearGradient><linearGradient id="paint2_linear" x1="134.011" y1="72" x2="134.011" y2="81" gradientUnits="userSpaceOnUse"><stop stop-color="#D3CEC4"/><stop offset="1" stop-color="#fff" stop-opacity="0"/></linearGradient><filter id="filter0_d" x="239" y="0" width="92" height="103.027" filterUnits="userSpaceOnUse" color-interpolation-filters="sRGB"><feFlood flood-opacity="0" result="BackgroundImageFix"/><feColorMatrix in="SourceAlpha" values="0 0 0 0 0 0 0 0 0 0 0 0 0 0 0 0 0 0 127 0"/><feOffset/><feGaussianBlur stdDeviation="5"/><feColorMatrix values="0 0 0 0 0 0 0 0 0 0 0 0 0 0 0 0 0 0 0.25 0"/><feBlend in2="BackgroundImageFix" result="effect1_dropShadow"/><feBlend in="SourceGraphic" in2="effect1_dropShadow" result="shape"/></filter><filter id="filter1_d" x="252" y="22" width="65.6" height="59.193" filterUnits="userSpaceOnUse" color-interpolation-filters="sRGB"><feFlood flood-opacity="0" result="BackgroundImageFix"/><feColorMatrix in="SourceAlpha" values="0 0 0 0 0 0 0 0 0 0 0 0 0 0 0 0 0 0 127 0"/><feOffset dy="4"/><feGaussianBlur stdDeviation="2"/><feColorMatrix values="0 0 0 0 0 0 0 0 0 0 0 0 0 0 0 0 0 0 0.25 0"/><feBlend in2="BackgroundImageFix" result="effect1_dropShadow"/><feBlend in="SourceGraphic" in2="effect1_dropShadow" result="shape"/></filter><radialGradient id="paint3_radial" cx="0" cy="0" r="1" gradientUnits="userSpaceOnUse" gradientTransform="matrix(0 41.4865 -35.9766 0 285 51.514)"><stop stop-color="#fff" stop-opacity="0"/><stop offset="1" stop-color="#E8E6E1"/></radialGradient></defs></svg>