<svg width="208" height="239" viewBox="0 0 208 239" fill="none" xmlns="http://www.w3.org/2000/svg"><g filter="url(#filter0_d)"><path d="M6 58.813L104 2.31l98 56.504v113.005l-98 56.504-98-56.504V58.813z" stroke="#504A40" stroke-width="4"/><rect x="20.716" y="64.914" width="166.568" height="48.099" rx="9.5" fill="#C4C4C4" stroke="#504A40"/><rect x="137.383" y="68.518" width="46.297" height="15.667" rx="4.5" fill="#fff" stroke="#504A40"/><path d="M141.866 81.919h-1.271V73.49l-2.55.937v-1.149l3.623-1.36h.198v10zm9.742-7.355a2.3 2.3 0 01-.397 1.326c-.26.387-.613.69-1.06.909.52.223.93.549 1.231.977.305.429.458.914.458 1.456 0 .862-.292 1.548-.875 2.058-.579.51-1.342.766-2.29.766-.957 0-1.725-.255-2.304-.766-.574-.515-.861-1.2-.861-2.058 0-.537.146-1.023.437-1.456a2.769 2.769 0 011.224-.984 2.608 2.608 0 01-1.046-.91 2.346 2.346 0 01-.383-1.319c0-.838.269-1.503.807-1.996.538-.492 1.246-.738 2.126-.738.875 0 1.581.246 2.119.738.542.493.814 1.158.814 1.997zm-1.033 4.641c0-.556-.177-1.01-.533-1.36-.351-.351-.811-.527-1.381-.527-.569 0-1.027.174-1.374.52-.342.346-.512.802-.512 1.367s.166 1.01.499 1.333c.337.324.804.485 1.401.485.592 0 1.057-.161 1.394-.485.338-.328.506-.772.506-1.333zm-1.9-6.337c-.497 0-.9.155-1.21.465-.305.305-.458.722-.458 1.251 0 .506.15.916.451 1.23.305.31.711.465 1.217.465.506 0 .909-.155 1.21-.465.305-.314.458-.724.458-1.23s-.157-.918-.472-1.237c-.314-.32-.713-.479-1.196-.479z" fill="#504A40"/><path fill-rule="evenodd" clip-rule="evenodd" d="M164.811 75.944h5.847c-2.221-4.305.186-6.728 1.993-7.475v5.845c.165.205.321.406.468.605 4.434-2.408 6.923.047 7.683 1.883h-6.501c2.183 4.278-.214 6.687-2.015 7.432V78.39a17.242 17.242 0 01-.256-.325c-4.145 1.997-6.486-.35-7.219-2.12z" fill="#504A40"/><circle cx="155.351" cy="71.171" r="1.752" stroke="#504A40"/><rect x="22.468" y="86.487" width="163.514" height="24.324" rx="5" fill="#504A40"/><path d="M23.878 92.861a5 5 0 014.982-4.573h150.73a5 5 0 014.982 4.573l.494 5.766a4.999 4.999 0 01-4.981 5.427H28.365a5 5 0 01-4.98-5.427l.493-5.766zm151.791 36.898c.813.184 1.04 1.221.359 1.702-7.157 5.052-17.232 9.277-29.319 12.28-13.062 3.246-27.983 4.942-43.166 4.907-15.184-.035-30.059-1.799-43.037-5.104-11.996-3.056-21.953-7.322-28.978-12.4-.68-.491-.442-1.532.377-1.713.294-.064.6.006.837.191 6.831 5.314 16.921 9.771 29.235 12.907 12.538 3.193 26.911 4.898 41.581 4.932 14.671.033 29.087-1.606 41.708-4.742 12.401-3.081 22.611-7.494 29.58-12.781a.995.995 0 01.823-.179z" fill="#C4C4C4"/><path d="M175.669 142.371c.813.184 1.04 1.222.359 1.702-7.157 5.052-17.232 9.277-29.319 12.28-13.062 3.246-27.983 4.942-43.166 4.908-15.184-.035-30.059-1.799-43.037-5.105-11.996-3.055-21.953-7.321-28.978-12.399-.68-.492-.442-1.532.377-1.713.294-.065.6.006.837.19 6.831 5.315 16.921 9.771 29.235 12.907 12.538 3.194 26.911 4.899 41.581 4.932 14.671.034 29.087-1.605 41.708-4.741 12.401-3.081 22.611-7.494 29.58-12.781a.999.999 0 01.823-.18z" fill="#C4C4C4"/><path d="M175.669 154.984c.813.184 1.04 1.222.359 1.702-7.157 5.052-17.232 9.277-29.319 12.28-13.062 3.246-27.983 4.942-43.166 4.907-15.184-.034-30.059-1.799-43.037-5.104-11.996-3.056-21.953-7.322-28.978-12.4-.68-.491-.442-1.532.377-1.712.294-.065.6.006.837.19 6.831 5.315 16.921 9.771 29.235 12.907 12.538 3.194 26.911 4.898 41.581 4.932 14.671.034 29.087-1.605 41.708-4.741 12.401-3.082 22.611-7.495 29.58-12.781a.995.995 0 01.823-.18z" fill="#C4C4C4"/></g><defs><filter id="filter0_d" x="0" y="0" width="208" height="238.631" filterUnits="userSpaceOnUse" color-interpolation-filters="sRGB"><feFlood flood-opacity="0" result="BackgroundImageFix"/><feColorMatrix in="SourceAlpha" values="0 0 0 0 0 0 0 0 0 0 0 0 0 0 0 0 0 0 127 0"/><feOffset dy="4"/><feGaussianBlur stdDeviation="2"/><feColorMatrix values="0 0 0 0 0 0 0 0 0 0 0 0 0 0 0 0 0 0 0.25 0"/><feBlend in2="BackgroundImageFix" result="effect1_dropShadow"/><feBlend in="SourceGraphic" in2="effect1_dropShadow" result="shape"/></filter></defs></svg>