<svg width="223" height="239" viewBox="0 0 223 239" fill="none" xmlns="http://www.w3.org/2000/svg"><g filter="url(#filter0_d)"><path d="M14 58.813L112 2.31l98 56.504v113.005l-98 56.504-98-56.504V58.813z" stroke="#504A40" stroke-width="4"/></g><g filter="url(#filter1_d)"><path fill-rule="evenodd" clip-rule="evenodd" d="M151.938 49.77c1.189.48 2.482.183 3.05-.763.645-1.074.115-2.577-1.185-3.358-1.3-.78-2.876-.544-3.521.53-.562.935-.232 2.196.722 3.022l-19.039 22.648a91.643 91.643 0 00-13.855-5.887l-6.321 10.52-16.993-25.024-30.073-3.256L46.04 79.298l30.073 3.256 16.993 25.023-7.692 12.803a91.554 91.554 0 0112.804 5.343l-6.627 11.028c-7.423-3.298-15.33-4.712-22.604-3.969-6.492.664-12.104 3.007-16.257 6.696 8.105 3.662 18.226 8.952 29.093 15.314l-13.982 32.83 21.826-28.128c11.432 7.015 21.435 13.878 28.714 19.565 1.344-5.428.788-11.527-1.692-17.614-2.862-7.028-8.097-13.566-14.846-18.656l6.603-10.99a91.617 91.617 0 0111.483 9.32l32.697-54.418a91.645 91.645 0 00-12.066-9.716l11.379-27.214zm-65.49 107.768l-.3-.18-.3-.18.6.36zM64.658 51.865l26.234 2.538-3.27 5.441-26.234-2.537 3.27-5.442zm29.371 4.423l14.557 21.972-3.27 5.442L90.76 61.73l3.27-5.442zm-34.977 4.906l26.234 2.537-3.27 5.442-26.234-2.537 3.27-5.442zm29.372 4.423l14.556 21.972-3.27 5.442-14.556-21.973 3.27-5.441zm-34.977 4.906L79.68 73.06l-3.27 5.442-26.234-2.538 3.27-5.441zm29.371 4.422l14.557 21.973-3.27 5.441L79.55 80.387l3.27-5.442zm93.559 25.532l-30.073-3.257-18.684 31.096 30.072 3.257 16.994 25.023L193.37 125.5l-16.993-25.023zm-3.905 2.944l-26.234-2.537-3.269 5.442 26.234 2.537 3.269-5.442zm17.695 23.858l-14.557-21.972-3.269 5.441 14.556 21.973 3.27-5.442zm-23.3-14.529l-26.234-2.537-3.27 5.441 26.234 2.538 3.27-5.442zm17.694 23.857l-14.556-21.972-3.27 5.442 14.556 21.972 3.27-5.442zm-23.299-14.528l-26.234-2.538-3.27 5.442 26.234 2.537 3.27-5.441zm17.694 23.857l-14.557-21.972-3.269 5.442 14.556 21.972 3.27-5.442z" fill="#857F72"/></g><defs><filter id="filter0_d" x="8" y="0" width="208" height="238.631" filterUnits="userSpaceOnUse" color-interpolation-filters="sRGB"><feFlood flood-opacity="0" result="BackgroundImageFix"/><feColorMatrix in="SourceAlpha" values="0 0 0 0 0 0 0 0 0 0 0 0 0 0 0 0 0 0 127 0"/><feOffset dy="4"/><feGaussianBlur stdDeviation="2"/><feColorMatrix values="0 0 0 0 0 0 0 0 0 0 0 0 0 0 0 0 0 0 0.25 0"/><feBlend in2="BackgroundImageFix" result="effect1_dropShadow"/><feBlend in="SourceGraphic" in2="effect1_dropShadow" result="shape"/></filter><filter id="filter1_d" x="0" y="7" width="222.127" height="227.561" filterUnits="userSpaceOnUse" color-interpolation-filters="sRGB"><feFlood flood-opacity="0" result="BackgroundImageFix"/><feColorMatrix in="SourceAlpha" values="0 0 0 0 0 0 0 0 0 0 0 0 0 0 0 0 0 0 127 0"/><feOffset dy="4"/><feGaussianBlur stdDeviation="2"/><feColorMatrix values="0 0 0 0 0 0 0 0 0 0 0 0 0 0 0 0 0 0 0.25 0"/><feBlend in2="BackgroundImageFix" result="effect1_dropShadow"/><feBlend in="SourceGraphic" in2="effect1_dropShadow" result="shape"/></filter></defs></svg>