<svg width="331" height="104" viewBox="0 0 331 104" fill="none" xmlns="http://www.w3.org/2000/svg"><path fill="#D80000" d="M1 31h247.816v41H1z"/><path fill="url(#paint0_linear)" d="M1 31h247.816v41H1z"/><path d="M249.322 31l15.172-9H18.701L3.023 31h246.299z" fill="url(#paint1_linear)"/><path d="M249.322 72H3.023l15.678 9H265l-15.678-9z" fill="url(#paint2_linear)"/><path d="M82.08 53.94c-.159 1.353-.66 2.399-1.504 3.137-.837.733-1.954 1.099-3.348 1.099-1.512 0-2.725-.542-3.639-1.626-.908-1.084-1.362-2.534-1.362-4.35v-1.231c0-1.19.21-2.236.633-3.138.427-.902 1.031-1.594 1.81-2.074.78-.486 1.682-.73 2.707-.73 1.36 0 2.45.381 3.27 1.143.82.756 1.298 1.805 1.432 3.146h-1.696c-.146-1.02-.466-1.757-.958-2.214-.486-.457-1.169-.686-2.048-.686-1.078 0-1.924.399-2.54 1.195-.61.797-.914 1.931-.914 3.402v1.239c0 1.389.29 2.493.87 3.313.58.82 1.392 1.23 2.435 1.23.937 0 1.655-.21 2.153-.632.504-.428.838-1.169 1.002-2.223h1.697zM94.163 58h-1.696V46.592h-6.31V58H84.47V45.203h9.694V58zm7.471-5.37l2.944-7.427h1.96l-4.526 10.661c-.305.68-.589 1.163-.852 1.45a2.739 2.739 0 01-.932.65c-.352.147-.794.22-1.327.22-.463 0-.76-.026-.888-.078l.053-1.337.8.036c.615 0 1.072-.296 1.371-.888l.219-.457.334-.782-4.359-9.475h1.89l3.313 7.427zm15.926-6.038h-4.113V58h-1.679V46.592h-4.105v-1.389h9.897v1.389zM129.294 58h-1.696v-5.915h-6.451V58h-1.688V45.203h1.688v5.502h6.451v-5.502h1.696V58zm11.066-12.797h1.687V58h-1.687v-9.861L134.058 58h-1.696V45.203h1.696v9.861l6.302-9.86zm8.086 7.049h-1.556V58h-1.688V45.203h1.688v5.643h1.318l4.474-5.643h2.101l-4.887 6.205L155.143 58h-2.066l-4.631-5.748zm17.806-.237c0 1.254-.211 2.35-.633 3.287-.421.931-1.019 1.643-1.792 2.136-.774.492-1.676.738-2.708.738-1.007 0-1.901-.246-2.68-.739-.779-.497-1.386-1.204-1.82-2.118-.427-.92-.647-1.983-.659-3.19v-.923c0-1.23.214-2.317.642-3.26.428-.944 1.031-1.665 1.81-2.163.786-.504 1.682-.756 2.69-.756 1.025 0 1.928.25 2.707.747.785.493 1.389 1.21 1.81 2.154.422.937.633 2.03.633 3.278v.809zm-1.678-.827c0-1.517-.305-2.68-.914-3.489-.61-.814-1.462-1.221-2.558-1.221-1.066 0-1.907.407-2.523 1.221-.609.809-.922 1.934-.94 3.375v.94c0 1.471.308 2.629.923 3.472.621.838 1.474 1.257 2.557 1.257 1.09 0 1.934-.395 2.532-1.186.597-.797.905-1.937.923-3.42v-.949zm4.21 6.812V45.203h4.183c1.389 0 2.432.287 3.129.861.703.575 1.055 1.424 1.055 2.55 0 .597-.17 1.127-.51 1.59-.34.457-.803.812-1.389 1.064.692.193 1.237.562 1.635 1.107.404.54.607 1.184.607 1.934 0 1.148-.373 2.05-1.117 2.707-.744.656-1.796.984-3.155.984h-4.438zm1.687-5.985v4.605h2.786c.785 0 1.404-.202 1.855-.606.457-.41.685-.973.685-1.688 0-1.54-.838-2.311-2.513-2.311h-2.813zm0-1.354h2.549c.738 0 1.327-.184 1.766-.554.446-.369.668-.87.668-1.502 0-.704-.205-1.213-.615-1.53-.41-.322-1.034-.483-1.872-.483h-2.496v4.07zm19.371 1.354c0 1.254-.211 2.35-.633 3.287-.422.931-1.019 1.643-1.793 2.136-.773.492-1.675.738-2.707.738-1.007 0-1.901-.246-2.68-.739-.78-.497-1.386-1.204-1.82-2.118-.427-.92-.647-1.983-.659-3.19v-.923c0-1.23.214-2.317.642-3.26.427-.944 1.031-1.665 1.81-2.163.785-.504 1.682-.756 2.69-.756 1.025 0 1.927.25 2.707.747.785.493 1.388 1.21 1.81 2.154.422.937.633 2.03.633 3.278v.809zm-1.679-.827c0-1.517-.304-2.68-.914-3.489-.609-.814-1.462-1.221-2.557-1.221-1.067 0-1.907.407-2.523 1.221-.609.809-.923 1.934-.94 3.375v.94c0 1.471.307 2.629.923 3.472.621.838 1.473 1.257 2.557 1.257 1.09 0 1.934-.395 2.532-1.186.597-.797.905-1.937.922-3.42v-.949zm11.444.897h-5.546v4.535h6.442V58h-8.13V45.203h8.042v1.389h-6.354v4.113h5.546v1.38zm15.952-5.493h-4.113V58h-1.679V46.592h-4.105v-1.389h9.897v1.389zM217.457 58V45.203h4.184c1.389 0 2.432.287 3.129.861.703.575 1.055 1.424 1.055 2.55 0 .597-.17 1.127-.51 1.59-.34.457-.803.812-1.389 1.064.692.193 1.236.562 1.635 1.107.404.54.606 1.184.606 1.934 0 1.148-.372 2.05-1.116 2.707-.744.656-1.796.984-3.155.984h-4.439zm1.688-5.985v4.605h2.786c.785 0 1.403-.202 1.855-.606.457-.41.685-.973.685-1.688 0-1.54-.838-2.311-2.514-2.311h-2.812zm0-1.354h2.549c.738 0 1.327-.184 1.766-.554.446-.369.668-.87.668-1.502 0-.704-.205-1.213-.615-1.53-.41-.322-1.034-.483-1.872-.483h-2.496v4.07z" fill="#FAF9F7"/><path d="M19.207 21L1 31.5v40L19.207 82" stroke="#423D33" stroke-width="2"/><g filter="url(#filter0_d)"><path d="M285 10l36 20.757V72.27l-36 20.757-36-20.757V30.757L285 10z" fill="url(#paint3_radial)"/><path d="M250 31.334l35-20.18 35 20.18v40.358l-35 20.18-35-20.18V31.335z" stroke="#423D33" stroke-width="2"/></g><g filter="url(#filter1_d)"><path fill-rule="evenodd" clip-rule="evenodd" d="M299.367 26.998l-4.297 10.277a30.721 30.721 0 014.058 3.268l-10.996 18.3a30.791 30.791 0 00-3.862-3.133l-2.221 3.696c2.27 1.712 4.031 3.91 4.993 6.274.834 2.047 1.021 4.098.569 5.923-2.448-1.912-5.812-4.22-9.656-6.58l-6.58 8.48c.334.277.452.71.26 1.03-.217.362-.747.441-1.184.179-.438-.263-.616-.768-.399-1.13.195-.324.644-.421 1.051-.246l4.214-9.893c-3.655-2.14-7.059-3.92-9.785-5.15 1.397-1.241 3.284-2.03 5.468-2.253 2.446-.25 5.105.226 7.602 1.335l2.228-3.709a30.807 30.807 0 00-4.306-1.797l2.587-4.305-5.715-8.416-10.114-1.095 6.284-10.458 10.114 1.095 5.715 8.416 2.125-3.538a30.801 30.801 0 014.66 1.98l7.187-8.55zm-21 2.682l-8.823-.853-1.1 1.83 8.823.854 1.1-1.83zm5.951 8.024l-4.896-7.39-1.1 1.83 4.896 7.39 1.1-1.83zm-7.836-4.886l-8.823-.853-1.1 1.83 8.823.853 1.1-1.83zm5.95 8.023l-4.895-7.39-1.1 1.831 4.896 7.39 1.099-1.83zm-7.836-4.886l-8.822-.853-1.1 1.83 8.823.853 1.099-1.83zm5.951 8.024l-4.895-7.39-1.1 1.83 4.896 7.39 1.099-1.83zm16.456.102l10.113 1.095 5.715 8.415-6.283 10.458-5.716-8.416-10.113-1.095 6.284-10.457zm-.023 1.232l8.823.853-1.1 1.83-8.822-.853 1.099-1.83zm9.878 1.487l4.896 7.39-1.1 1.83-4.895-7.39 1.099-1.83zm-11.763 1.65l8.823.853-1.1 1.83-8.823-.853 1.1-1.83zm9.878 1.487l4.896 7.39-1.1 1.83-4.895-7.39 1.099-1.83zm-11.763 1.65l8.823.853-1.1 1.83-8.823-.853 1.1-1.83zm9.878 1.488l4.895 7.39-1.099 1.83-4.896-7.39 1.1-1.83z" fill="#D80000"/></g><defs><linearGradient id="paint0_linear" x1="124.908" y1="31" x2="124.908" y2="72" gradientUnits="userSpaceOnUse"><stop stop-color="#D80000"/><stop offset=".489" stop-color="#DC9090" stop-opacity=".511"/><stop offset="1" stop-color="#D80000"/></linearGradient><linearGradient id="paint1_linear" x1="133.759" y1="22" x2="133.759" y2="31" gradientUnits="userSpaceOnUse"><stop stop-color="#fff" stop-opacity="0"/><stop offset="1" stop-color="#D3CEC4"/></linearGradient><linearGradient id="paint2_linear" x1="134.011" y1="72" x2="134.011" y2="81" gradientUnits="userSpaceOnUse"><stop stop-color="#D3CEC4"/><stop offset="1" stop-color="#fff" stop-opacity="0"/></linearGradient><filter id="filter0_d" x="239" y="0" width="92" height="103.027" filterUnits="userSpaceOnUse" color-interpolation-filters="sRGB"><feFlood flood-opacity="0" result="BackgroundImageFix"/><feColorMatrix in="SourceAlpha" values="0 0 0 0 0 0 0 0 0 0 0 0 0 0 0 0 0 0 127 0"/><feOffset/><feGaussianBlur stdDeviation="5"/><feColorMatrix values="0 0 0 0 0 0 0 0 0 0 0 0 0 0 0 0 0 0 0.25 0"/><feBlend in2="BackgroundImageFix" result="effect1_dropShadow"/><feBlend in="SourceGraphic" in2="effect1_dropShadow" result="shape"/></filter><filter id="filter1_d" x="245" y="14" width="80" height="81.819" filterUnits="userSpaceOnUse" color-interpolation-filters="sRGB"><feFlood flood-opacity="0" result="BackgroundImageFix"/><feColorMatrix in="SourceAlpha" values="0 0 0 0 0 0 0 0 0 0 0 0 0 0 0 0 0 0 127 0"/><feOffset dy="4"/><feGaussianBlur stdDeviation="2"/><feColorMatrix values="0 0 0 0 0 0 0 0 0 0 0 0 0 0 0 0 0 0 0.25 0"/><feBlend in2="BackgroundImageFix" result="effect1_dropShadow"/><feBlend in="SourceGraphic" in2="effect1_dropShadow" result="shape"/></filter><radialGradient id="paint3_radial" cx="0" cy="0" r="1" gradientUnits="userSpaceOnUse" gradientTransform="matrix(0 41.4865 -35.9766 0 285 51.514)"><stop stop-color="#fff" stop-opacity="0"/><stop offset="1" stop-color="#E8E6E1"/></radialGradient></defs></svg>