<svg width="328" height="104" viewBox="0 0 328 104" fill="none" xmlns="http://www.w3.org/2000/svg"><path fill="#BA2525" d="M1 31h245v41H1z"/><path fill="url(#paint0_linear)" d="M1 31h245v41H1z"/><path d="M246.5 31l15-9h-243L3 31h243.5z" fill="url(#paint1_linear)"/><path d="M246.5 72H3l15.5 9H262l-15.5-9z" fill="url(#paint2_linear)"/><path d="M56.639 58V45.203h4.183c1.389 0 2.432.287 3.13.861.702.575 1.054 1.424 1.054 2.55 0 .597-.17 1.127-.51 1.59-.34.457-.803.812-1.389 1.064.692.193 1.237.562 1.635 1.107.404.54.607 1.184.607 1.934 0 1.148-.372 2.05-1.117 2.707-.744.656-1.795.984-3.155.984H56.64zm1.687-5.985v4.605h2.786c.785 0 1.404-.202 1.855-.606.457-.41.685-.973.685-1.688 0-1.54-.837-2.311-2.513-2.311h-2.813zm0-1.354h2.549c.738 0 1.327-.184 1.767-.554.445-.369.668-.87.668-1.502 0-.704-.206-1.213-.616-1.53-.41-.322-1.034-.483-1.872-.483h-2.496v4.07zm17.596-5.458h1.687V58h-1.687v-9.861L69.62 58h-1.696V45.203h1.696v9.861l6.302-9.86zm16.47 15.935h-1.678V58h-9.185v3.147h-1.687l-.009-4.527h1.046c.55-.621.987-1.453 1.31-2.496.328-1.049.533-2.197.615-3.445l.281-5.476h7.655V56.62h1.67l-.017 4.518zm-9.588-4.518h6.24V46.592H84.71l-.185 3.761c-.076 1.471-.272 2.725-.588 3.762-.311 1.037-.689 1.872-1.134 2.505zm18.843-4.535h-5.545v4.535h6.442V58h-8.13V45.203h8.042v1.389h-6.354v4.113h5.545v1.38zm12.841-.07c0 1.254-.211 2.35-.633 3.287-.421.931-1.019 1.643-1.793 2.136-.773.492-1.675.738-2.707.738-1.007 0-1.901-.246-2.68-.739-.779-.497-1.386-1.204-1.82-2.118-.427-.92-.647-1.983-.659-3.19v-.923c0-1.23.214-2.317.642-3.26.428-.944 1.031-1.665 1.81-2.163.786-.504 1.682-.756 2.69-.756 1.025 0 1.928.25 2.707.747.785.493 1.389 1.21 1.81 2.154.422.937.633 2.03.633 3.278v.809zm-1.678-.827c0-1.517-.305-2.68-.914-3.489-.61-.814-1.462-1.221-2.558-1.221-1.067 0-1.907.407-2.523 1.221-.609.809-.922 1.934-.94 3.375v.94c0 1.471.308 2.629.923 3.472.621.838 1.473 1.257 2.557 1.257 1.09 0 1.934-.395 2.532-1.186.597-.797.905-1.937.923-3.42v-.949zM126.854 58h-1.696v-5.915h-6.451V58h-1.687V45.203h1.687v5.502h6.451v-5.502h1.696V58zm10.222-3.34h-5.361L130.511 58h-1.74l4.886-12.797h1.477L140.029 58h-1.731l-1.222-3.34zm-4.851-1.388h4.35l-2.179-5.986-2.171 5.986zm17.332-6.68h-6.17v3.832h3.181c1.336.017 2.379.36 3.129 1.028s1.125 1.576 1.125 2.725c0 1.154-.378 2.074-1.134 2.76-.755.685-1.787 1.04-3.093 1.063h-4.905V45.203h7.867v1.389zm-6.17 5.22v4.808h3.085c.838 0 1.488-.222 1.951-.668.469-.445.703-1.043.703-1.793 0-.72-.226-1.289-.677-1.705-.445-.416-1.081-.63-1.907-.642h-3.155zm19.397-6.609V58h-1.687V46.592h-4.588l-.229 5.071c-.088 1.7-.263 2.977-.527 3.832-.258.856-.639 1.486-1.143 1.89-.504.398-1.177.603-2.021.615h-.554v-1.38l.352-.017c.545-.041.964-.217 1.257-.528.293-.316.515-.817.668-1.503.152-.685.26-1.74.325-3.164l.263-6.205h7.884zm16.998 6.812c0 1.254-.211 2.35-.633 3.287-.421.931-1.019 1.643-1.793 2.136-.773.492-1.675.738-2.707.738-.972 0-1.845-.235-2.619-.703-.767-.47-1.371-1.14-1.81-2.013-.434-.873-.674-1.893-.721-3.059h-1.837V58h-1.687V45.203h1.687v5.871h1.828c.018-1.207.238-2.264.659-3.173.422-.914 1.023-1.62 1.802-2.118.779-.504 1.673-.756 2.681-.756 1.025 0 1.928.25 2.707.747.785.493 1.389 1.21 1.81 2.154.422.937.633 2.03.633 3.278v.809zm-1.678-.827c0-1.517-.305-2.68-.915-3.489-.609-.814-1.461-1.221-2.557-1.221-1.067 0-1.907.407-2.523 1.221-.609.809-.922 1.934-.94 3.375v.94c0 1.471.308 2.629.923 3.472.621.838 1.473 1.257 2.557 1.257 1.09 0 1.934-.395 2.532-1.186.597-.797.905-1.937.923-3.42v-.949zm15.082 9.95h-1.679V58h-9.185v3.147h-1.687l-.009-4.527h1.046c.551-.621.987-1.453 1.309-2.496.329-1.049.534-2.197.616-3.445l.281-5.476h7.655V56.62h1.67l-.017 4.518zm-9.589-4.518h6.24V46.592h-4.333l-.185 3.761c-.076 1.471-.272 2.725-.589 3.762-.31 1.037-.688 1.872-1.133 2.505zm18.843-4.535h-5.545v4.535h6.442V58h-8.13V45.203h8.042v1.389h-6.354v4.113h5.545v1.38zM215.272 58h-1.696v-5.915h-6.451V58h-1.687V45.203h1.687v5.502h6.451v-5.502h1.696V58zm11.066-12.797h1.687V58h-1.687v-9.861L220.036 58h-1.696V45.203h1.696v9.861l6.302-9.86zm11.997 6.882h-5.546v4.535h6.442V58h-8.129V45.203h8.042v1.389h-6.355v4.113h5.546v1.38z" fill="#C4C4C4"/><path d="M19 21L1 31.5v40L19 82" stroke="#423D33" stroke-width="2"/><g filter="url(#filter0_d)"><path d="M282 10l36 20.757V72.27l-36 20.757-36-20.757V30.757L282 10z" fill="url(#paint3_radial)"/><path d="M247 31.334l35-20.18 35 20.18v40.358l-35 20.18-35-20.18V31.335z" stroke="#423D33" stroke-width="2"/></g><g filter="url(#filter1_d)"><path fill-rule="evenodd" clip-rule="evenodd" d="M310.284 50.416c1.115 0 1.393-1.549.348-1.937l-41.738-15.503a1 1 0 00-1.287.595l-2.829 7.754a.998.998 0 00.138.94l4.973 6.67a1 1 0 00.456.34l8.895 3.282a2.861 2.861 0 00.632 3.127l-2.42 6.303h-.046a2.862 2.862 0 00-2.726 1.99h-15.561v-1.244a1.244 1.244 0 00-1.991-.996v-1.244a1.244 1.244 0 10-2.488 0v9.455a1.244 1.244 0 002.488 0v-1.244a1.244 1.244 0 001.991-.995v-1.493h15.774a2.861 2.861 0 104.507-3.421l2.412-6.284.073.001a2.863 2.863 0 002.722-1.975l8.344 3.08a1 1 0 00.749-.023l8.542-3.759a.998.998 0 00.553-.621l.644-2.092a1 1 0 01.956-.706h5.889zm-2.15.622h-3.856l-.871 3.235-8.957 3.981 9.703 3.732 1.245-3.483 1.368.622 2.239-5.847-1.493-.498.622-1.742zm1.991 1.618l2.115.746-2.861 7.838-2.115-.871 2.861-7.713zm-8.832-.8c.343 0 .622-.334.622-.746s-.279-.746-.622-.746c-.344 0-.622.334-.622.746s.278.746.622.746z" fill="#D80000"/></g><defs><linearGradient id="paint0_linear" x1="123.5" y1="31" x2="123.5" y2="72" gradientUnits="userSpaceOnUse"><stop stop-color="#BA2525"/><stop offset=".489" stop-color="#DC9090" stop-opacity=".511"/><stop offset="1" stop-color="#BA2525"/></linearGradient><linearGradient id="paint1_linear" x1="132.25" y1="22" x2="132.25" y2="31" gradientUnits="userSpaceOnUse"><stop stop-color="#FAF9F7" stop-opacity="0"/><stop offset="1" stop-color="#C4C4C4"/></linearGradient><linearGradient id="paint2_linear" x1="132.5" y1="72" x2="132.5" y2="81" gradientUnits="userSpaceOnUse"><stop stop-color="#C4C4C4"/><stop offset="1" stop-color="#FAF9F7" stop-opacity="0"/></linearGradient><filter id="filter0_d" x="236" y="0" width="92" height="103.027" filterUnits="userSpaceOnUse" color-interpolation-filters="sRGB"><feFlood flood-opacity="0" result="BackgroundImageFix"/><feColorMatrix in="SourceAlpha" values="0 0 0 0 0 0 0 0 0 0 0 0 0 0 0 0 0 0 127 0"/><feOffset/><feGaussianBlur stdDeviation="5"/><feColorMatrix values="0 0 0 0 0 0 0 0 0 0 0 0 0 0 0 0 0 0 0.25 0"/><feBlend in2="BackgroundImageFix" result="effect1_dropShadow"/><feBlend in="SourceGraphic" in2="effect1_dropShadow" result="shape"/></filter><filter id="filter1_d" x="250.64" y="32.914" width="65.6" height="46.279" filterUnits="userSpaceOnUse" color-interpolation-filters="sRGB"><feFlood flood-opacity="0" result="BackgroundImageFix"/><feColorMatrix in="SourceAlpha" values="0 0 0 0 0 0 0 0 0 0 0 0 0 0 0 0 0 0 127 0"/><feOffset dy="4"/><feGaussianBlur stdDeviation="2"/><feColorMatrix values="0 0 0 0 0 0 0 0 0 0 0 0 0 0 0 0 0 0 0.25 0"/><feBlend in2="BackgroundImageFix" result="effect1_dropShadow"/><feBlend in="SourceGraphic" in2="effect1_dropShadow" result="shape"/></filter><radialGradient id="paint3_radial" cx="0" cy="0" r="1" gradientUnits="userSpaceOnUse" gradientTransform="matrix(0 41.4865 -35.9766 0 282 51.514)"><stop stop-color="#fff" stop-opacity="0"/><stop offset="1" stop-color="#E8E6E1"/></radialGradient></defs></svg>